<svg xmlns="http://www.w3.org/2000/svg" width="20" height="20" viewBox="0 0 20 20">
  <title>
    au-national-route-2
  </title>
  <path fill="none" d="M0,0L20,0,20,20,0,20z"/>
  <g>
    <g>
      <path fill="#fff" d="M10,19.5a.41.41,0,0,1-.19,0c-.06,0-5.4-2.27-7-3A3.44,3.44,0,0,1,.5,13V3A.5.5,0,0,1,1,2.5H19a.5.5,0,0,1,.5.5V13a3.44,3.44,0,0,1-2.29,3.46c-1.62.73-7,3-7,3A.41.41,0,0,1,10,19.5Z"/>
      <path fill="#5b638b" d="M19,3V13a3,3,0,0,1-2,3c-1.63.74-7,3-7,3s-5.37-2.26-7-3a3,3,0,0,1-2-3V3H19m0-1H1A1,1,0,0,0,0,3V13a4,4,0,0,0,2.59,3.91c1.62.74,6.8,2.92,7,3a1,1,0,0,0,.78,0c.22-.09,5.4-2.27,7-3A4,4,0,0,0,20,13V3a1,1,0,0,0-1-1Z"/>
    </g>
  </g>
</svg>
