<svg xmlns="http://www.w3.org/2000/svg" width="43" height="20" viewBox="0 0 43 20">
  <title>
    au-national-route-6
  </title>
  <path fill="none" d="M0,0L43,0,43,20,0,20z"/>
  <g>
    <g>
      <path fill="#fff" d="M21.43,19.5c-.67-.1-16.34-2.28-18.22-3A3.46,3.46,0,0,1,.63,13V3a.5.5,0,0,1,.5-.5H41.87a.5.5,0,0,1,.5.5V13a3.46,3.46,0,0,1-2.58,3.46c-1.88.76-17.55,2.94-18.22,3h-.14Z"/>
      <path fill="#5b638b" d="M41.87,3V13a3,3,0,0,1-2.26,3c-1.85.74-18.11,3-18.11,3S5.24,16.74,3.39,16a3,3,0,0,1-2.26-3V3H41.87m0-1H1.13a1,1,0,0,0-1,1V13A4,4,0,0,0,3,16.93c1.91.77,16.67,2.83,18.34,3.06h.28c1.67-.23,16.43-2.29,18.34-3.06A4,4,0,0,0,42.87,13V3a1,1,0,0,0-1-1Z"/>
    </g>
  </g>
</svg>
