<svg xmlns="http://www.w3.org/2000/svg" width="20" height="21" viewBox="0 0 20 21">
  <title>
    au-tourist-2
  </title>
  <g>
    <g>
      <path fill="#8c715e" d="M5.74,19.5A1.51,1.51,0,0,1,4.3,18.44L.76,6.92a1.5,1.5,0,0,1,.71-1.75L9.27.83a1.5,1.5,0,0,1,1.46,0l7.8,4.34a1.5,1.5,0,0,1,.71,1.75L15.7,18.44a1.51,1.51,0,0,1-1.44,1.06Z"/>
      <path fill="#fff" d="M10,1.14a1.05,1.05,0,0,1,.49.13l7.8,4.34a1,1,0,0,1,.47,1.17L15.22,18.29a1,1,0,0,1-1,.71H5.74a1,1,0,0,1-1-.71L1.24,6.78a1,1,0,0,1,.47-1.17l7.8-4.34A1.05,1.05,0,0,1,10,1.14m0-1A1.93,1.93,0,0,0,9,.4L1.22,4.73A2,2,0,0,0,.28,7.07L3.83,18.59A2,2,0,0,0,5.74,20h8.52a2,2,0,0,0,1.91-1.41L19.72,7.07a2,2,0,0,0-.94-2.34L11,.4a1.93,1.93,0,0,0-1-.26Z"/>
    </g>
  </g>
  <path fill="none" d="M0,0L20,0,20,21,0,21z"/>
</svg>
