<svg xmlns="http://www.w3.org/2000/svg" width="28" height="20" viewBox="0 0 28 20">
  <title>
    br-state-3
  </title>
  <path fill="none" d="M0,0L28,0,28,20,0,20z"/>
  <g>
    <g>
      <path fill="#fff" d="M6,17.5a.51.51,0,0,1-.45-.28l-5-10a.5.5,0,0,1,.24-.67l13-6a.47.47,0,0,1,.42,0l13,6a.5.5,0,0,1,.24.67l-5,10a.51.51,0,0,1-.45.28Z"/>
      <path fill="#5b638b" d="M14,1,27,7,22,17H6L1,7,14,1m0-1a1,1,0,0,0-.42.09l-13,6a1,1,0,0,0-.52.58,1,1,0,0,0,.05.78l5,10A1,1,0,0,0,6,18H22a1,1,0,0,0,.89-.55l5-10a1,1,0,0,0,.05-.78,1,1,0,0,0-.52-.58l-13-6A1,1,0,0,0,14,0Z"/>
    </g>
  </g>
</svg>
