<svg xmlns="http://www.w3.org/2000/svg" width="38" height="23" viewBox="0 0 38 23">
  <title>
    cn-nths-expy-5
  </title>
  <g>
    <path fill="#64a67a" d="M3,0.5L35,0.5A2.5,2.5,0,0,1,37.5,3L37.5,17A2.5,2.5,0,0,1,35,19.5L3,19.5A2.5,2.5,0,0,1,0.5,17L0.5,3A2.5,2.5,0,0,1,3,0.5"/>
    <path fill="#fff" d="M35,1a2,2,0,0,1,2,2V17a2,2,0,0,1-2,2H3a2,2,0,0,1-2-2V3A2,2,0,0,1,3,1H35m0-1H3A3,3,0,0,0,0,3V17a3,3,0,0,0,3,3H35a3,3,0,0,0,3-3V3a3,3,0,0,0-3-3Z"/>
  </g>
  <path fill="#bf6969" d="M35,1H3A2,2,0,0,0,1,3V4H37V3A2,2,0,0,0,35,1Z"/>
  <path fill="none" d="M0,0L38,0,38,23,0,23z"/>
</svg>
