<svg xmlns="http://www.w3.org/2000/svg" viewBox="0 0 17 17" height="17" width="17"><title>communications-tower-11.svg</title><rect fill="none" x="0" y="0" width="17" height="17"></rect><path fill="rgba(255,255,255,0.75)" transform="translate(3 3)" d="M7.6553,3.5645h-.4V1.4482h.4ZM3.7017,1.4482h-.4V3.5645h.4Zm6-.2851h-.4V4.4414h.4Zm-8.023,0h-.4V4.4414h.4ZM5.7572,4.1683l.4366,0h0a.3541.3541,0,0,1,.3457.2812L7.5792,9.4366H9V10H2V9.4366H3.434L4.4731,4.45a.3548.3548,0,0,1,.3453-.2813l.4388,0V2.912h0A.9155.9155,0,0,1,4.59,2.0373a.9272.9272,0,1,1,1.167.8874Zm-.96,2.1881H6.2159L5.9072,4.875H5.106ZM4.383,8.3447H6.63L6.2786,6.6572H4.7346ZM6.8577,9.4366l-.1648-.7911H4.32l-.1648.7911Z" style="stroke-linejoin:round;stroke-miterlimit:4;" stroke="rgba(255,255,255,0.75)" stroke-width="2"></path><path fill="#735139" transform="translate(3 3)" d="M7.6553,3.5645h-.4V1.4482h.4ZM3.7017,1.4482h-.4V3.5645h.4Zm6-.2851h-.4V4.4414h.4Zm-8.023,0h-.4V4.4414h.4ZM5.7572,4.1683l.4366,0h0a.3541.3541,0,0,1,.3457.2812L7.5792,9.4366H9V10H2V9.4366H3.434L4.4731,4.45a.3548.3548,0,0,1,.3453-.2813l.4388,0V2.912h0A.9155.9155,0,0,1,4.59,2.0373a.9272.9272,0,1,1,1.167.8874Zm-.96,2.1881H6.2159L5.9072,4.875H5.106ZM4.383,8.3447H6.63L6.2786,6.6572H4.7346ZM6.8577,9.4366l-.1648-.7911H4.32l-.1648.7911Z"></path></svg>