<svg xmlns="http://www.w3.org/2000/svg" width="18" height="22" viewBox="0 0 18 22">
  <title>
    hk-strategic-route-2
  </title>
  <path fill="none" d="M0,0H18V22H0z"/>
  <g>
    <path fill="#f2df85" d="M9,21.5a.25.25,0,0,1-.12,0C8.54,21.4.5,19.27.5,9.5V4A.5.5,0,0,1,1,3.5H17a.5.5,0,0,1,.5.5V9.5c0,9.67-8,11.89-8.37,12Z"/>
    <path fill="#e6965c" d="M17,4V9.5C17,18,10.6,20.58,9,21c-1.68-.42-8-3-8-11.5V4H17m0-1H1A1,1,0,0,0,0,4V9.5C0,19.66,8.4,21.88,8.76,22A1,1,0,0,0,9,22a1,1,0,0,0,.25,0C12.5,21.11,18,17.52,18,9.5V4a1,1,0,0,0-1-1Z"/>
  </g>
</svg>
