<svg xmlns="http://www.w3.org/2000/svg" width="26" height="22" viewBox="0 0 26 22">
  <title>
    kr-natl-expy-3
  </title>
  <g>
    <g>
      <path fill="#6977bf" d="M13,18.5a.52.52,0,0,1-.38-.17c-.57-.65-3.08-.78-4-.82l-.37,0c-1.6-.08-4.59-.22-6.08-1.81C-.48,12.89.56,9.84,1.56,7.78S1.49,4.67.7,3.9a.6.6,0,0,1-.18-.4.53.53,0,0,1,.16-.38l3-2.5A.49.49,0,0,1,4,.5a.51.51,0,0,1,.36.15A6.42,6.42,0,0,0,8.5,2,6.53,6.53,0,0,0,12.64.65.49.49,0,0,1,13,.5h0a.47.47,0,0,1,.35.15A6.52,6.52,0,0,0,17.5,2,6.39,6.39,0,0,0,21.63.65.51.51,0,0,1,22,.5a.49.49,0,0,1,.32.12l3,2.5a.5.5,0,0,1,.18.36.54.54,0,0,1-.15.38c-.83.8-1.91,1.85-.9,3.92s2,5.11-.59,7.9c-1.49,1.59-4.48,1.73-6.08,1.81l-.37,0c-.95,0-3.46.17-4,.82A.52.52,0,0,1,13,18.5Z"/>
      <path fill="#fff" d="M22,1l3,2.5c-.78.76-2.19,2.06-1,4.5s1.69,5-.5,7.33c-1.44,1.53-4.57,1.6-6,1.67-1.16.06-3.76.16-4.5,1-.74-.84-3.34-.94-4.5-1-1.43-.07-4.56-.14-6-1.67C.31,13,.81,10.45,2,8S1.78,4.26,1,3.5L4,1A6.94,6.94,0,0,0,8.5,2.5,7,7,0,0,0,13,1a7,7,0,0,0,4.5,1.5A6.84,6.84,0,0,0,22,1m0-1a1,1,0,0,0-.72.3A6,6,0,0,1,17.5,1.5,6.05,6.05,0,0,1,13.71.29,1,1,0,0,0,13,0h0a1,1,0,0,0-.7.3A6.15,6.15,0,0,1,8.5,1.5,6,6,0,0,1,4.71.3,1,1,0,0,0,4,0a1,1,0,0,0-.64.23l-3,2.5A1,1,0,0,0,0,3.46a1,1,0,0,0,.3.76l0,0C1.1,5,2,5.82,1.11,7.56,0,9.75-1,13,1.77,16c1.64,1.74,4.75,1.89,6.43,2h.37c2.82.15,3.51.48,3.68.66A1,1,0,0,0,13,19h0a1.05,1.05,0,0,0,.75-.34c.17-.18.86-.51,3.68-.66h.37c1.68-.08,4.8-.23,6.43-2,2.83-3,1.74-6.27.67-8.46-.85-1.74,0-2.57.76-3.3l0,0a1,1,0,0,0,.3-.76,1,1,0,0,0-.36-.73l-3-2.5A1,1,0,0,0,22,0Z"/>
    </g>
    <path fill="none" d="M0,0H26V22H0z"/>
    <path fill="none" d="M0,0H26V22H0z"/>
    <path fill="#fff" d="M1,4H25V5H1z"/>
    <path fill="#bf6969" d="M1.49,4h23c.17-.19.34-.36.49-.5L22,1A6.84,6.84,0,0,1,17.5,2.5,7,7,0,0,1,13,1,7,7,0,0,1,8.5,2.5,6.94,6.94,0,0,1,4,1L1,3.5C1.15,3.64,1.32,3.81,1.49,4Z"/>
  </g>
</svg>
