<svg xmlns="http://www.w3.org/2000/svg" width="18" height="22" viewBox="0 0 18 22">
  <title>
    mx-state-2
  </title>
  <g>
    <path fill="#fff" d="M9,21.5a.25.25,0,0,1-.12,0C6,20.76.5,17.32.5,9.5V1A.5.5,0,0,1,1,.5H17a.5.5,0,0,1,.5.5V9.5a12.8,12.8,0,0,1-8.37,12Z"/>
    <path fill="#5b638b" d="M17,1V9.5A12.3,12.3,0,0,1,9,21c-1.68-.42-8-3.08-8-11.5V1H17m0-1H1A1,1,0,0,0,0,1V9.5A12.93,12.93,0,0,0,3.67,19a11.68,11.68,0,0,0,5.09,3A1,1,0,0,0,9,22a1,1,0,0,0,.25,0C11,21.5,18.09,17.83,18,9.49V1a1,1,0,0,0-1-1Z"/>
  </g>
  <path fill="#5b638b" d="M0,3L18,3,18,4,0,4z"/>
</svg>
