<svg xmlns="http://www.w3.org/2000/svg" width="28" height="24" viewBox="0 0 28 24">
  <title>
    tw-provincial-expy-3
  </title>
  <path fill="none" d="M0,0H28V24H0z"/>
  <g>
    <path fill="#bf6969" d="M14,23.5a6.36,6.36,0,0,1-3.3-.88C5,19.21,1,14,.52,9.34c-.21-2,1-3.78,3.45-5A24,24,0,0,1,14,2.5,23.69,23.69,0,0,1,24,4.34c2.47,1.23,3.66,3,3.45,5C27,14,23,19.21,17.3,22.62A6.36,6.36,0,0,1,14,23.5Z"/>
    <path fill="#fff" d="M14,3c3.71,0,7.41.59,9.79,1.78,2.1,1.06,3.37,2.57,3.17,4.51-.5,4.71-4.75,9.79-9.94,12.9a6.11,6.11,0,0,1-6.08,0C5.77,19.08,1.52,14,1,9.29.82,7.35,2.08,5.83,4.19,4.78,6.6,3.59,10.32,3,14,3m0-1A24.58,24.58,0,0,0,3.75,3.89C1.11,5.19-.21,7.15,0,9.39c.51,4.81,4.6,10.17,10.42,13.66a7.11,7.11,0,0,0,7.1,0C23.37,19.56,27.46,14.2,28,9.39c.24-2.23-1.08-4.18-3.72-5.5A24.25,24.25,0,0,0,14,2Z"/>
  </g>
</svg>
