<svg xmlns="http://www.w3.org/2000/svg" width="26" height="38" viewBox="0 0 26 38">
  <title>
    us-highway-truck-3
  </title>
  <g>
    <path fill="#fff" d="M13,27.5a.52.52,0,0,1-.38-.17c-.57-.65-3.08-.78-4-.82l-.37,0c-1.61-.08-4.59-.22-6.08-1.81-2.62-2.79-1.58-5.84-.58-7.9S1.49,13.67.7,12.9a.6.6,0,0,1-.18-.4.53.53,0,0,1,.16-.38l3-2.5A.49.49,0,0,1,4,9.5a.51.51,0,0,1,.36.15A6.42,6.42,0,0,0,8.5,11a6.53,6.53,0,0,0,4.14-1.35A.49.49,0,0,1,13,9.5h0a.47.47,0,0,1,.35.15A6.52,6.52,0,0,0,17.5,11a6.39,6.39,0,0,0,4.13-1.35A.51.51,0,0,1,22,9.5a.49.49,0,0,1,.32.12l3,2.5a.5.5,0,0,1,.18.36.54.54,0,0,1-.15.38c-.83.8-1.91,1.85-.9,3.92s2,5.11-.59,7.9c-1.49,1.59-4.47,1.73-6.08,1.81l-.38,0c-.94,0-3.45.17-4,.82A.52.52,0,0,1,13,27.5Z"/>
    <path fill="#5b638b" d="M22,10l3,2.5c-.78.76-2.19,2.06-1,4.5s1.69,5-.5,7.33c-1.44,1.53-4.57,1.6-6,1.67-1.16.06-3.76.16-4.5,1-.74-.84-3.34-.94-4.5-1-1.43-.07-4.56-.14-6-1.67C.31,22,.81,19.45,2,17s-.23-3.74-1-4.5L4,10a6.94,6.94,0,0,0,4.5,1.5A7,7,0,0,0,13,10a7,7,0,0,0,4.5,1.5A6.84,6.84,0,0,0,22,10m0-1a1,1,0,0,0-.72.3,6,6,0,0,1-3.77,1.2,6.05,6.05,0,0,1-3.79-1.21A1,1,0,0,0,13,9h0a1,1,0,0,0-.7.3A6.15,6.15,0,0,1,8.5,10.5,6,6,0,0,1,4.71,9.3,1,1,0,0,0,4,9a1,1,0,0,0-.64.23l-3,2.5a1,1,0,0,0-.36.73,1,1,0,0,0,.3.76l0,0c.75.73,1.61,1.56.76,3.3C0,18.75-1,22,1.77,25c1.64,1.74,4.75,1.89,6.43,2h.37c2.82.15,3.51.48,3.68.66A1,1,0,0,0,13,28h0a1.05,1.05,0,0,0,.75-.34c.17-.18.86-.51,3.68-.66h.37c1.68-.08,4.8-.23,6.43-2,2.83-3,1.74-6.27.67-8.46-.85-1.74,0-2.57.76-3.3l0,0a1,1,0,0,0,.3-.76,1,1,0,0,0-.36-.73l-3-2.5A1,1,0,0,0,22,9Z"/>
  </g>
  <path fill="none" d="M0,9H26V29H0z"/>
  <path fill="none" d="M0,0H26V38H0z"/>
  <path fill="#fff" d="M3.92,0H22.08A.87.87,0,0,1,23,.86V7.14a.88.88,0,0,1-.92.86H3.92A.88.88,0,0,1,3,7.14V.86A.88.88,0,0,1,3.92,0Z"/>
  <g>
    <path fill="#5b638b" d="M5.68,1.85V7H4.73V1.85h-1V1H6.68v.85Z"/>
    <path fill="#5b638b" d="M9.62,7,8.83,4.53H8.3V7H7.36V1H8.88a1.45,1.45,0,0,1,1.17.42,2,2,0,0,1,.35,1.34,2.68,2.68,0,0,1-.14,1,1.11,1.11,0,0,1-.55.62L10.6,7ZM9.46,2.76a2,2,0,0,0,0-.35.82.82,0,0,0-.08-.29.42.42,0,0,0-.17-.2.57.57,0,0,0-.31-.07H8.3V3.68h.58a.57.57,0,0,0,.31-.07.42.42,0,0,0,.17-.2.82.82,0,0,0,.08-.29A2.11,2.11,0,0,0,9.46,2.76Z"/>
    <path fill="#5b638b" d="M14.29,5.51a1.52,1.52,0,0,1-.11.62,1.31,1.31,0,0,1-.3.48,1.53,1.53,0,0,1-2.53-.48,1.71,1.71,0,0,1-.11-.62V1h.95V5.56a.61.61,0,0,0,.17.48.56.56,0,0,0,.41.16A.58.58,0,0,0,13.19,6a.65.65,0,0,0,.16-.48V1h.94Z"/>
    <path fill="#5b638b" d="M18.22,5.39a2.17,2.17,0,0,1-.15.74,1.37,1.37,0,0,1-.35.54,1.4,1.4,0,0,1-.44.29,1.74,1.74,0,0,1-.59.09A1.48,1.48,0,0,1,16,6.9a1.67,1.67,0,0,1-.46-.36,1.47,1.47,0,0,1-.24-.4,2.81,2.81,0,0,1-.13-.52,6.55,6.55,0,0,1-.06-.7c0-.27,0-.58,0-.93s0-.66,0-.93a6.55,6.55,0,0,1,.06-.7,3,3,0,0,1,.13-.52,1.28,1.28,0,0,1,.24-.39A1.53,1.53,0,0,1,16,1.08,1.74,1.74,0,0,1,17.28,1a1.32,1.32,0,0,1,.46.29,1.38,1.38,0,0,1,.34.53,2.37,2.37,0,0,1,.14.73h-.94a3.11,3.11,0,0,0,0-.32A.68.68,0,0,0,17.13,2,.44.44,0,0,0,17,1.84a.54.54,0,0,0-.27-.06.51.51,0,0,0-.27.06.59.59,0,0,0-.18.17,1.5,1.5,0,0,0-.17.69C16,3,16,3.44,16,4s0,1,0,1.29a1.5,1.5,0,0,0,.17.69.59.59,0,0,0,.18.17.51.51,0,0,0,.27.06A.54.54,0,0,0,17,6.14.44.44,0,0,0,17.13,6a.81.81,0,0,0,.11-.27,3.11,3.11,0,0,0,0-.32Z"/>
    <path fill="#5b638b" d="M21.37,7l-1-2.46L20,5.44V7H19V1H20V3.81L21.25,1h.95L21,3.48,22.38,7Z"/>
  </g>
</svg>
