<svg xmlns="http://www.w3.org/2000/svg" width="24" height="27" viewBox="0 0 24 27">
  <title>
    ae-f-route-3
  </title>
  <g>
    <path fill="#64a67a" d="M1.61,19A1.11,1.11,0,0,1,.5,17.89V5.4A1.11,1.11,0,0,1,1.61,4.3H4A1.11,1.11,0,0,1,5.15,5.4V7.2a.1.1,0,0,0,.11.1H6.48a.1.1,0,0,0,.11-.1V5.4A1.11,1.11,0,0,1,7.7,4.3h2.43a1.11,1.11,0,0,1,1.11,1.1V7.2a.1.1,0,0,0,.11.1h1.3a.1.1,0,0,0,.11-.1V1.6A1.11,1.11,0,0,1,13.87.5H16.3a1.11,1.11,0,0,1,1.11,1.1V3.4a.1.1,0,0,0,.11.1h1.22a.1.1,0,0,0,.11-.1V1.6A1.11,1.11,0,0,1,20,.5h2.43A1.11,1.11,0,0,1,23.5,1.6V17.89A1.11,1.11,0,0,1,22.39,19Z"/>
    <path fill="#f2df85" d="M22.39,1a.6.6,0,0,1,.61.6V17.89a.6.6,0,0,1-.61.6H1.61a.6.6,0,0,1-.61-.6V5.4a.6.6,0,0,1,.61-.6H4a.6.6,0,0,1,.61.6V7.2a.61.61,0,0,0,.61.6H6.48a.61.61,0,0,0,.61-.6V5.4a.6.6,0,0,1,.61-.6h2.43a.6.6,0,0,1,.61.6V7.2a.6.6,0,0,0,.61.6h1.3a.6.6,0,0,0,.61-.6V1.6a.6.6,0,0,1,.61-.6H16.3a.6.6,0,0,1,.61.6V3.4a.61.61,0,0,0,.61.6h1.22a.61.61,0,0,0,.61-.6V1.6A.6.6,0,0,1,20,1h2.43m0-1H20a1.61,1.61,0,0,0-1.61,1.6V3h-.44V1.6A1.61,1.61,0,0,0,16.3,0H13.87a1.61,1.61,0,0,0-1.61,1.6V6.8h-.52V5.4a1.61,1.61,0,0,0-1.61-1.6H7.7A1.61,1.61,0,0,0,6.09,5.4V6.8H5.65V5.4A1.61,1.61,0,0,0,4,3.8H1.61A1.61,1.61,0,0,0,0,5.4V17.89a1.61,1.61,0,0,0,1.61,1.6H22.39A1.61,1.61,0,0,0,24,17.89V1.6A1.61,1.61,0,0,0,22.39,0Z"/>
  </g>
  <path fill="none" d="M0,0L24,0,24,27,0,27z"/>
</svg>
