<svg xmlns="http://www.w3.org/2000/svg" width="32" height="25" viewBox="0 0 32 25">
  <title>
    ae-national-4
  </title>
  <g>
    <path fill="#6977bf" d="M16.5,21a9.55,9.55,0,0,1-2.44-.31L2,19.36a.49.49,0,0,1-.44-.49V16.6a1.14,1.14,0,0,0,0-.19l-.45,0a.6.6,0,0,1-.46-.24.55.55,0,0,1-.07-.51l.79-2.19-.26,0a.6.6,0,0,1-.46-.24.55.55,0,0,1-.07-.51l.79-2.19-.29,0a.61.61,0,0,1-.56-.56V8A3.34,3.34,0,0,1,1.61,5.51c.21-.2.61-.56,5.2-.56C8.25,5,9.53,5,9.9,5l2.25.15h.28c.47,0,1.3-.09,1.59-.69a.72.72,0,0,0-.1-.5l-1.74-.26a.67.67,0,0,1-.44-.31.64.64,0,0,1,0-.62,5.75,5.75,0,0,1,2.76-2l.09,0A4,4,0,0,1,16.05.5a2.72,2.72,0,0,1,1.77.61,3.85,3.85,0,0,1,1.06,2.77,1.15,1.15,0,0,0,.43.94,2,2,0,0,0,1.23.35l.3,0L23.11,5c.37,0,1.49,0,2.73,0,3.94,0,4.36.38,4.55.56A3.34,3.34,0,0,1,31.5,8v2.08a.61.61,0,0,1-.56.56h-.26l.76,2.17a.58.58,0,0,1-.07.51.56.56,0,0,1-.46.24h-.23l.76,2.17a.58.58,0,0,1-.07.51.56.56,0,0,1-.46.24h-.46a1.19,1.19,0,0,0,0,.15v2.27a.5.5,0,0,1-.44.49L18.88,20.7A9.13,9.13,0,0,1,16.5,21Z"/>
    <path fill="#fff" d="M16.05,1a2.19,2.19,0,0,1,1.45.5,3.35,3.35,0,0,1,.88,2.35c0,1.21.94,1.82,2.16,1.82l.34,0,2.25-.15c.37,0,1.47,0,2.7,0,1.8,0,3.84.08,4.23.43A2.85,2.85,0,0,1,31,8v2.08a.06.06,0,0,1-.06.06h-.26a.5.5,0,0,0-.5.65L31,13a.06.06,0,0,1-.06.08h-.23a.5.5,0,0,0-.5.65L31,15.87a.06.06,0,0,1-.06.08h-.46c-.37,0-.51.28-.51.65v2.27L18.82,20.2a9.12,9.12,0,0,1-4.64,0L2.06,18.87V16.6c0-.44-.12-.61-.5-.65H1.09A.06.06,0,0,1,1,15.87l.79-2.19a.5.5,0,0,0-.5-.65H1.09A.06.06,0,0,1,1,13l.79-2.19a.5.5,0,0,0-.5-.65H1.06A.06.06,0,0,1,1,10.05V8a2.85,2.85,0,0,1,.94-2.09c.39-.35,2.79-.43,4.87-.43,1.43,0,2.7,0,3.07,0l2.24.15h.32a2.1,2.1,0,0,0,2-1c.15-.33,0-1.13-.43-1.19l-1.78-.28c-.11,0-.1-.12,0-.22.38-.77,2-1.48,2.61-1.77A3.61,3.61,0,0,1,16.05,1m0-1h0a4.5,4.5,0,0,0-1.56.29l-.09,0-.09,0c-1.29.59-2.54,1.26-3,2.19a1.15,1.15,0,0,0,0,1.07,1.1,1.1,0,0,0,.8.58l1.34.21a1.86,1.86,0,0,1-1,.24h-.25L9.92,4.5c-.38,0-1.68,0-3.11,0-4.79,0-5.22.4-5.54.69A3.85,3.85,0,0,0,0,8v2.08a1,1,0,0,0,.66,1L.09,12.61a1.05,1.05,0,0,0,.13,1,1,1,0,0,0,.44.36L.09,15.53a1.05,1.05,0,0,0,.13,1,1.06,1.06,0,0,0,.83.45v1.92a1,1,0,0,0,.89,1L14,21.19a10.28,10.28,0,0,0,5,0l11-1.33a1,1,0,0,0,.88-1V17a1.07,1.07,0,0,0,.84-.45,1.05,1.05,0,0,0,.13-1l-.57-1.59a1,1,0,0,0,.44-.36,1.05,1.05,0,0,0,.13-1L31.34,11a1,1,0,0,0,.66-1V8a3.85,3.85,0,0,0-1.27-2.83c-.38-.35-1.07-.69-4.9-.69-1.27,0-2.42,0-2.74,0l-2.28.16h-.27c-.76,0-1.15-.27-1.16-.8A4.32,4.32,0,0,0,18.21.79L18.13.72A3.21,3.21,0,0,0,16.05,0Z"/>
  </g>
  <path fill="none" d="M0,0H32V25H0z"/>
</svg>
