<svg xmlns="http://www.w3.org/2000/svg" width="26" height="20" viewBox="0 0 26 20">
  <title>
    au-national-highway-3
  </title>
  <path fill="none" d="M0,0L26,0,26,20,0,20z"/>
  <g>
    <path fill="#64a67a" d="M13,19.5l-.13,0c-.34-.09-8.43-2.27-10.08-3A3.44,3.44,0,0,1,.5,13V3A.5.5,0,0,1,1,2.5H25a.5.5,0,0,1,.5.5V13a3.44,3.44,0,0,1-2.29,3.46c-1.65.75-9.74,2.93-10.08,3Z"/>
    <path fill="#f2df85" d="M25,3V13a3,3,0,0,1-2,3c-1.63.74-10,3-10,3S4.63,16.74,3,16a3,3,0,0,1-2-3V3H25m0-1H1A1,1,0,0,0,0,3V13a4,4,0,0,0,2.59,3.91c1.65.76,9.29,2.82,10.15,3.06a1.14,1.14,0,0,0,.52,0c.86-.24,8.5-2.3,10.15-3.06A4,4,0,0,0,26,13V3a1,1,0,0,0-1-1Z"/>
  </g>
</svg>
