<svg xmlns="http://www.w3.org/2000/svg" width="34" height="20" viewBox="0 0 34 20">
  <title>
    au-state-5
  </title>
  <g>
    <path fill="#6977bf" d="M17.69,19.49C14.82,19.06.5,16.58.5,10c0-4.46,2-6.56,3.26-7.41a.52.52,0,0,1,.29-.09H30a.57.57,0,0,1,.28.08c1.49,1,3.27,3.06,3.27,7.42,0,6.59-13,9.06-15.66,9.49h-.15Z"/>
    <path fill="#fff" d="M30,3C31.48,4,33,6.06,33,10c0,6-12.19,8.5-15.24,9C14.71,18.54,1,16,1,10,1,6.06,2.62,4,4.05,3H30m0-1H4.05a1,1,0,0,0-.58.18C2.18,3.09,0,5.31,0,10c0,3,2.65,5.56,7.89,7.53A51.6,51.6,0,0,0,17.61,20h.31C20.61,19.55,34,17,34,10c0-4.58-1.9-6.79-3.5-7.84A1,1,0,0,0,30,2Z"/>
  </g>
  <path fill="none" d="M0,0H34V20H0z"/>
</svg>
