<svg xmlns="http://www.w3.org/2000/svg" width="29" height="20" viewBox="0 0 29 20">
  <title>
    au-state-4
  </title>
  <g>
    <path fill="#6977bf" d="M15.06,19.49C12.62,19.06.5,16.56.5,10,.5,5.78,2,3.66,3.25,2.62a.47.47,0,0,1,.32-.12H25.43a.51.51,0,0,1,.31.11C27,3.59,28.5,5.67,28.5,10c0,6.58-11,9.06-13.26,9.49h-.18Z"/>
    <path fill="#fff" d="M25.43,3C26.71,4,28,6.06,28,10c0,6-10.29,8.5-12.86,9C12.57,18.54,1,16,1,10,1,6.06,2.37,4,3.57,3H25.43m0-1H3.57a1,1,0,0,0-.64.23C1.59,3.34,0,5.59,0,10c0,7,12.47,9.54,15,10l.17,0,.19,0C17.62,19.54,29,17,29,10c0-4.54-1.61-6.74-3-7.79A1,1,0,0,0,25.43,2Z"/>
  </g>
  <path fill="none" d="M0,0H29V20H0z"/>
</svg>
