<svg xmlns="http://www.w3.org/2000/svg" viewBox="0 0 21 21" height="21" width="21"><title>fitness-centre-15.svg</title><rect fill="none" x="0" y="0" width="21" height="21"></rect><path fill="rgba(255,255,255,0.75)" transform="translate(3 3)" d="M14.5,7V8h-1v2h-1v1H11V8H4v3H2.5V10h-1V8H.5V7h1V5h1V4H4V7h7V4h1.5V5h1V7Z" style="stroke-linejoin:round;stroke-miterlimit:4;" stroke="rgba(255,255,255,0.75)" stroke-width="2"></path><path fill="#735139" transform="translate(3 3)" d="M14.5,7V8h-1v2h-1v1H11V8H4v3H2.5V10h-1V8H.5V7h1V5h1V4H4V7h7V4h1.5V5h1V7Z"></path></svg>