<svg xmlns="http://www.w3.org/2000/svg" width="16" height="22" viewBox="0 0 16 22">
  <title>
    in-national-2
  </title>
  <g>
    <path fill="#f2df85" d="M8,21.5C5.64,21.5.5,17.25.5,13V3A.5.5,0,0,1,1,2.5H5c.85,0,1.91-1,2.63-1.84A.52.52,0,0,1,8,.5H8a.52.52,0,0,1,.37.16c.89,1,1.76,1.84,2.63,1.84h4a.5.5,0,0,1,.5.5V13C15.5,17.25,10.36,21.5,8,21.5Z"/>
    <path fill="#5b638b" d="M8,1c1,1,1.92,2,3,2h4V13c0,4-5,8-7,8s-7-4-7-8V3H5C6,3,7.08,2,8,1M8,0H8a1,1,0,0,0-.74.32C6,1.71,5.33,2,5,2H1A1,1,0,0,0,0,3V13c0,4.36,5.2,9,8,9,2.5,0,8-4.33,8-9V3a1,1,0,0,0-1-1H11C10.33,2,9.52,1.17,8.74.32A1,1,0,0,0,8,0Z"/>
  </g>
</svg>
