<svg xmlns="http://www.w3.org/2000/svg" width="26" height="19" viewBox="0 0 26 19">
  <title>
    kr-metro-expy-3
  </title>
  <g>
    <path fill="#fff" d="M5.21,15.5a1,1,0,0,1-.71-.29L.79,11.5a1,1,0,0,1-.29-.71V5.21A1,1,0,0,1,.79,4.5L4.5.79A1,1,0,0,1,5.21.5H20.79a1,1,0,0,1,.71.29L25.21,4.5a1,1,0,0,1,.29.71v5.58a1,1,0,0,1-.29.71L21.5,15.21a1,1,0,0,1-.71.29Z"/>
    <path fill="#6977bf" d="M20.79,1a.49.49,0,0,1,.36.15l3.7,3.7a.49.49,0,0,1,.15.36v5.58a.49.49,0,0,1-.15.36l-3.7,3.7a.49.49,0,0,1-.36.15H5.21a.49.49,0,0,1-.36-.15l-3.7-3.7A.49.49,0,0,1,1,10.79V5.21a.49.49,0,0,1,.15-.36l3.7-3.7A.49.49,0,0,1,5.21,1H20.79m0-1H5.21A1.5,1.5,0,0,0,4.15.44L.44,4.15A1.5,1.5,0,0,0,0,5.21v5.58a1.5,1.5,0,0,0,.44,1.06l3.71,3.71A1.5,1.5,0,0,0,5.21,16H20.79a1.5,1.5,0,0,0,1.06-.44l3.71-3.71A1.5,1.5,0,0,0,26,10.79V5.21a1.5,1.5,0,0,0-.44-1.06L21.85.44A1.5,1.5,0,0,0,20.79,0Z"/>
  </g>
  <path fill="#bf6969" d="M20.79,1H5.21a.49.49,0,0,0-.36.15L2,4H24L21.15,1.15A.49.49,0,0,0,20.79,1Z"/>
  <path fill="none" d="M0,0H26V19H0z"/>
</svg>
