<svg xmlns="http://www.w3.org/2000/svg" width="32" height="16" viewBox="0 0 32 16">
  <title>
    kr-metropolitan-4
  </title>
  <g>
    <path fill="#fff" d="M5.21,15.5a1,1,0,0,1-.71-.29L.79,11.5a1,1,0,0,1-.29-.71V5.21A1,1,0,0,1,.79,4.5L4.5.79A1,1,0,0,1,5.21.5H26.79a1,1,0,0,1,.71.29L31.21,4.5a1,1,0,0,1,.29.71v5.58a1,1,0,0,1-.29.71L27.5,15.21a1,1,0,0,1-.71.29Z"/>
    <path fill="#6977bf" d="M26.79,1a.49.49,0,0,1,.36.15l3.7,3.7a.49.49,0,0,1,.15.36v5.58a.49.49,0,0,1-.15.36l-3.7,3.7a.49.49,0,0,1-.36.15H5.21a.49.49,0,0,1-.36-.15l-3.7-3.7A.49.49,0,0,1,1,10.79V5.21a.49.49,0,0,1,.15-.36l3.7-3.7A.49.49,0,0,1,5.21,1H26.79m0-1H5.21A1.5,1.5,0,0,0,4.15.44L.44,4.15A1.5,1.5,0,0,0,0,5.21v5.58a1.5,1.5,0,0,0,.44,1.06l3.71,3.71A1.5,1.5,0,0,0,5.21,16H26.79a1.5,1.5,0,0,0,1.06-.44l3.71-3.71A1.5,1.5,0,0,0,32,10.79V5.21a1.5,1.5,0,0,0-.44-1.06L27.85.44A1.5,1.5,0,0,0,26.79,0Z"/>
  </g>
</svg>
