<svg xmlns="http://www.w3.org/2000/svg" width="19" height="19" viewBox="0 0 19 19">
  <title>madrid-metro</title>
  <path d="M9.5,19a2.88,2.88,0,0,1-1.7-.55L1.09,13.59a2.54,2.54,0,0,1,0-4.17L7.8,4.56a2.91,2.91,0,0,1,3.4,0l6.71,4.86a2.55,2.55,0,0,1,0,4.17L11.2,18.45A2.88,2.88,0,0,1,9.5,19Z" fill="#fff" opacity="0.75"/>
  <rect width="19" height="19" fill="none"/>
  <path d="M9.62,6.66a0.22,0.22,0,0,0-.23,0L3.09,11.2a0.36,0.36,0,0,0,0,.59l6.14,4.5a0.47,0.47,0,0,0,.56,0l6.16-4.43A0.35,0.35,0,0,0,16,11.37l-0.08-.08Z" fill="#fff"/>
  <path d="M17.33,10.22L10.62,5.36a1.9,1.9,0,0,0-2.23,0L1.68,10.22a1.55,1.55,0,0,0,0,2.55l6.71,4.86a1.92,1.92,0,0,0,2.23,0l6.71-4.86A1.55,1.55,0,0,0,17.33,10.22Zm-1.39,1.63L9.78,16.29a0.47,0.47,0,0,1-.56,0l-6.14-4.5a0.36,0.36,0,0,1,0-.59l6.3-4.54a0.22,0.22,0,0,1,.23,0l6.32,4.63a0.35,0.35,0,0,1,.08.49Z" fill="#f23d3d"/>
  <rect x="5.5" y="10" width="8" height="3" rx="0.89" ry="0.89" fill="#475ecc"/>
</svg>
