<svg xmlns="http://www.w3.org/2000/svg" width="26" height="20" viewBox="0 0 26 20">
  <title>
    tw-county-township-3
  </title>
  <g>
    <path fill="#fff" d="M3.04,0.59L23.04,0.59A2.5,2.5,0,0,1,25.54,3.09L25.54,17.09A2.5,2.5,0,0,1,23.04,19.59L3.04,19.59A2.5,2.5,0,0,1,0.54,17.09L0.54,3.09A2.5,2.5,0,0,1,3.04,0.59"/>
    <path fill="#5b638b" d="M23,1.09a2,2,0,0,1,2,2v14a2,2,0,0,1-2,2H3a2,2,0,0,1-2-2v-14a2,2,0,0,1,2-2H23m0-1H3a3,3,0,0,0-3,3v14a3,3,0,0,0,3,3H23a3,3,0,0,0,3-3v-14a3,3,0,0,0-3-3Z"/>
  </g>
</svg>
