<svg xmlns="http://www.w3.org/2000/svg" width="22" height="24" viewBox="0 0 22 24">
  <title>
    tw-provincial-2
  </title>
  <path fill="none" d="M0,0H22V24H0z"/>
  <g>
    <path fill="#6977bf" d="M11,23.5a4.25,4.25,0,0,1-2.64-.93A21.41,21.41,0,0,1,.56,9.12,4.72,4.72,0,0,1,3.3,4,20.45,20.45,0,0,1,11,2.5h0A20.45,20.45,0,0,1,18.7,4a4.72,4.72,0,0,1,2.74,5.13,21.41,21.41,0,0,1-7.8,13.45A4.25,4.25,0,0,1,11,23.5Z"/>
    <path fill="#fff" d="M11,3a20.07,20.07,0,0,1,7.51,1.45A4.22,4.22,0,0,1,21,9a21,21,0,0,1-7.62,13.14,3.72,3.72,0,0,1-4.66,0A21,21,0,0,1,1.05,9,4.22,4.22,0,0,1,3.49,4.45,20,20,0,0,1,11,3m0-1A20.87,20.87,0,0,0,3.11,3.53a5.21,5.21,0,0,0-3,5.67A21.86,21.86,0,0,0,8.05,23,4.7,4.7,0,0,0,14,23a21.86,21.86,0,0,0,8-13.76,5.21,5.21,0,0,0-3-5.67A20.87,20.87,0,0,0,11,2Z"/>
  </g>
</svg>
