<svg xmlns="http://www.w3.org/2000/svg" width="20" height="38" viewBox="0 0 20 38">
  <title>
    us-highway-truck-2
  </title>
  <path fill="#fff" d="M.92,0H19.08A.87.87,0,0,1,20,.86V7.14a.88.88,0,0,1-.92.86H.92A.88.88,0,0,1,0,7.14V.86A.88.88,0,0,1,.92,0Z"/>
  <path fill="none" d="M0,0H20V38H0z"/>
  <g>
    <path fill="#fff" d="M10,27.5a.52.52,0,0,1-.38-.17A3.56,3.56,0,0,0,7,26.5a6.39,6.39,0,0,1-4.84-1.82c-2.61-2.79-1.58-5.84-.57-7.9s-.08-3.12-.87-3.89a.54.54,0,0,1-.17-.4.49.49,0,0,1,.16-.38l3-2.49A.49.49,0,0,1,4,9.5h.06a.5.5,0,0,1,.34.2A3.41,3.41,0,0,0,7,11,3.63,3.63,0,0,0,9.62,9.67.5.5,0,0,1,10,9.5h0a.5.5,0,0,1,.38.17A3.53,3.53,0,0,0,13,11a3.53,3.53,0,0,0,2.64-1.32A.48.48,0,0,1,16,9.5a.49.49,0,0,1,.32.12l3,2.49a.51.51,0,0,1,.18.37.51.51,0,0,1-.15.37c-.83.8-1.91,1.86-.9,3.93s2,5.11-.59,7.9a6.33,6.33,0,0,1-4.79,1.82c-1.18.06-2.1.16-2.69.83A.52.52,0,0,1,10,27.5Z"/>
    <path fill="#5b638b" d="M16,10l3,2.49c-.78.76-2.19,2.08-1,4.51s1.69,5-.5,7.33A5.83,5.83,0,0,1,13,26a4,4,0,0,0-3,1,4,4,0,0,0-3-1,5.83,5.83,0,0,1-4.5-1.67C.31,22,.81,19.45,2,17s-.23-3.75-1-4.51L4,10a3.89,3.89,0,0,0,3,1.5A4.11,4.11,0,0,0,10,10a4,4,0,0,0,3,1.5A4,4,0,0,0,16,10m0-1a1,1,0,0,0-.77.36A3,3,0,0,1,13,10.5a3,3,0,0,1-2.22-1.15,1,1,0,0,0-1.52,0A3.17,3.17,0,0,1,7,10.5a2.89,2.89,0,0,1-2.2-1.1A1,1,0,0,0,4.11,9H4a1,1,0,0,0-.64.23l-3,2.5a1,1,0,0,0-.36.73,1,1,0,0,0,.3.75l0,0c.76.73,1.62,1.57.77,3.31-.62,1.26-2.49,5.1.66,8.46A6.84,6.84,0,0,0,6.9,27H7a3.17,3.17,0,0,1,2.3.66,1,1,0,0,0,1.5,0,3.17,3.17,0,0,1,2.3-.66h0a6.84,6.84,0,0,0,5.13-2c3.16-3.36,1.28-7.2.67-8.46-.85-1.75,0-2.58.76-3.32a1,1,0,0,0,.32-.77,1,1,0,0,0-.34-.74l-3-2.5A1,1,0,0,0,16,9Z"/>
  </g>
  <g>
    <path fill="#5b638b" d="M2.68,1.85V7h-1V1.85h-1V1h3v.85Z"/>
    <path fill="#5b638b" d="M6.62,7,5.83,4.53H5.3V7H4.36V1H5.88a1.45,1.45,0,0,1,1.17.42A2,2,0,0,1,7.4,2.76a2.68,2.68,0,0,1-.14,1,1.11,1.11,0,0,1-.55.62L7.6,7ZM6.46,2.76a2,2,0,0,0,0-.35.82.82,0,0,0-.08-.29.42.42,0,0,0-.17-.2.57.57,0,0,0-.31-.07H5.3V3.68h.58a.57.57,0,0,0,.31-.07.42.42,0,0,0,.17-.2.82.82,0,0,0,.08-.29A2.11,2.11,0,0,0,6.46,2.76Z"/>
    <path fill="#5b638b" d="M11.29,5.51a1.52,1.52,0,0,1-.11.62,1.31,1.31,0,0,1-.3.48,1.48,1.48,0,0,1-1.11.44,1.46,1.46,0,0,1-1.42-.92,1.71,1.71,0,0,1-.11-.62V1h.95V5.56A.61.61,0,0,0,9.36,6a.56.56,0,0,0,.41.16A.58.58,0,0,0,10.19,6a.65.65,0,0,0,.16-.48V1h.94Z"/>
    <path fill="#5b638b" d="M15.22,5.39a2.17,2.17,0,0,1-.15.74,1.37,1.37,0,0,1-.35.54,1.4,1.4,0,0,1-.44.29,1.74,1.74,0,0,1-.59.09A1.48,1.48,0,0,1,13,6.9a1.67,1.67,0,0,1-.46-.36,1.47,1.47,0,0,1-.24-.4,2.81,2.81,0,0,1-.13-.52,6.55,6.55,0,0,1-.06-.7c0-.27,0-.58,0-.93s0-.66,0-.93a6.55,6.55,0,0,1,.06-.7,3,3,0,0,1,.13-.52,1.28,1.28,0,0,1,.24-.39A1.53,1.53,0,0,1,13,1.08,1.74,1.74,0,0,1,14.28,1a1.32,1.32,0,0,1,.46.29,1.38,1.38,0,0,1,.34.53,2.37,2.37,0,0,1,.14.73h-.94a3.11,3.11,0,0,0,0-.32A.68.68,0,0,0,14.13,2,.44.44,0,0,0,14,1.84a.54.54,0,0,0-.27-.06.51.51,0,0,0-.27.06.59.59,0,0,0-.18.17,1.5,1.5,0,0,0-.17.69C13,3,13,3.44,13,4s0,1,0,1.29a1.5,1.5,0,0,0,.17.69.59.59,0,0,0,.18.17.51.51,0,0,0,.27.06A.54.54,0,0,0,14,6.14.44.44,0,0,0,14.13,6a.81.81,0,0,0,.11-.27,3.11,3.11,0,0,0,0-.32Z"/>
    <path fill="#5b638b" d="M18.37,7l-1-2.46L17,5.44V7H16V1H17V3.81L18.25,1h.95L18,3.48,19.38,7Z"/>
  </g>
</svg>
