<svg xmlns="http://www.w3.org/2000/svg" width="20" height="38" viewBox="0 0 20 38">
  <title>
    us-highway-alternate-2
  </title>
  <path fill="#fff" d="M.92,0H19.08A.87.87,0,0,1,20,.86V7.14a.88.88,0,0,1-.92.86H.92A.88.88,0,0,1,0,7.14V.86A.88.88,0,0,1,.92,0Z"/>
  <g>
    <path fill="#5b638b" d="M6.47,7,6.12,5.94H4L3.63,7H2.41L4.59,1H5.5L7.69,7ZM5.08,2.77,4.32,5H5.81Z"/>
    <path fill="#5b638b" d="M8.43,7V1H9.6V6h2.71V7Z"/>
    <path fill="#5b638b" d="M14.87,2.05V7H13.7V2.05H12.14V1h4.29v1Z"/>
    <path fill="#5b638b" d="M16.25,7V5.75H17.5V7Z"/>
  </g>
  <path fill="none" d="M0,0H20V38H0z"/>
  <g>
    <path fill="#fff" d="M10,27.5a.52.52,0,0,1-.38-.17A3.56,3.56,0,0,0,7,26.5a6.39,6.39,0,0,1-4.84-1.82c-2.61-2.79-1.58-5.84-.57-7.9s-.08-3.12-.87-3.89a.54.54,0,0,1-.17-.4.49.49,0,0,1,.16-.38l3-2.49A.49.49,0,0,1,4,9.5h.06a.5.5,0,0,1,.34.2A3.41,3.41,0,0,0,7,11,3.63,3.63,0,0,0,9.62,9.67.5.5,0,0,1,10,9.5h0a.5.5,0,0,1,.38.17A3.53,3.53,0,0,0,13,11a3.53,3.53,0,0,0,2.64-1.32A.48.48,0,0,1,16,9.5a.49.49,0,0,1,.32.12l3,2.49a.51.51,0,0,1,.18.37.51.51,0,0,1-.15.37c-.83.8-1.91,1.86-.9,3.93s2,5.11-.59,7.9a6.33,6.33,0,0,1-4.79,1.82c-1.18.06-2.1.16-2.69.83A.52.52,0,0,1,10,27.5Z"/>
    <path fill="#5b638b" d="M16,10l3,2.49c-.78.76-2.19,2.08-1,4.51s1.69,5-.5,7.33A5.83,5.83,0,0,1,13,26a4,4,0,0,0-3,1,4,4,0,0,0-3-1,5.83,5.83,0,0,1-4.5-1.67C.31,22,.81,19.45,2,17s-.23-3.75-1-4.51L4,10a3.89,3.89,0,0,0,3,1.5A4.11,4.11,0,0,0,10,10a4,4,0,0,0,3,1.5A4,4,0,0,0,16,10m0-1a1,1,0,0,0-.77.36A3,3,0,0,1,13,10.5a3,3,0,0,1-2.22-1.15,1,1,0,0,0-1.52,0A3.17,3.17,0,0,1,7,10.5a2.89,2.89,0,0,1-2.2-1.1A1,1,0,0,0,4.11,9H4a1,1,0,0,0-.64.23l-3,2.5a1,1,0,0,0-.36.73,1,1,0,0,0,.3.75l0,0c.76.73,1.62,1.57.77,3.31-.62,1.26-2.49,5.1.66,8.46A6.84,6.84,0,0,0,6.9,27H7a3.17,3.17,0,0,1,2.3.66,1,1,0,0,0,1.5,0,3.17,3.17,0,0,1,2.3-.66h0a6.84,6.84,0,0,0,5.13-2c3.16-3.36,1.28-7.2.67-8.46-.85-1.75,0-2.58.76-3.32a1,1,0,0,0,.32-.77,1,1,0,0,0-.34-.74l-3-2.5A1,1,0,0,0,16,9Z"/>
  </g>
</svg>
