<svg xmlns="http://www.w3.org/2000/svg" width="26" height="38" viewBox="0 0 26 38">
  <title>
    us-highway-business-3
  </title>
  <g>
    <path fill="#fff" d="M13,27.5a.52.52,0,0,1-.38-.17c-.57-.65-3.08-.78-4-.82l-.37,0c-1.61-.08-4.59-.22-6.08-1.81-2.62-2.79-1.58-5.84-.58-7.9S1.49,13.67.7,12.9a.6.6,0,0,1-.18-.4.53.53,0,0,1,.16-.38l3-2.5A.49.49,0,0,1,4,9.5a.51.51,0,0,1,.36.15A6.42,6.42,0,0,0,8.5,11a6.53,6.53,0,0,0,4.14-1.35A.49.49,0,0,1,13,9.5h0a.47.47,0,0,1,.35.15A6.52,6.52,0,0,0,17.5,11a6.39,6.39,0,0,0,4.13-1.35A.51.51,0,0,1,22,9.5a.49.49,0,0,1,.32.12l3,2.5a.5.5,0,0,1,.18.36.54.54,0,0,1-.15.38c-.83.8-1.91,1.85-.9,3.92s2,5.11-.59,7.9c-1.49,1.59-4.47,1.73-6.08,1.81l-.38,0c-.94,0-3.45.17-4,.82A.52.52,0,0,1,13,27.5Z"/>
    <path fill="#5b638b" d="M22,10l3,2.5c-.78.76-2.19,2.06-1,4.5s1.69,5-.5,7.33c-1.44,1.53-4.57,1.6-6,1.67-1.16.06-3.76.16-4.5,1-.74-.84-3.34-.94-4.5-1-1.43-.07-4.56-.14-6-1.67C.31,22,.81,19.45,2,17s-.23-3.74-1-4.5L4,10a6.94,6.94,0,0,0,4.5,1.5A7,7,0,0,0,13,10a7,7,0,0,0,4.5,1.5A6.84,6.84,0,0,0,22,10m0-1a1,1,0,0,0-.72.3,6,6,0,0,1-3.77,1.2,6.05,6.05,0,0,1-3.79-1.21A1,1,0,0,0,13,9h0a1,1,0,0,0-.7.3A6.15,6.15,0,0,1,8.5,10.5,6,6,0,0,1,4.71,9.3,1,1,0,0,0,4,9a1,1,0,0,0-.64.23l-3,2.5a1,1,0,0,0-.36.73,1,1,0,0,0,.3.76l0,0c.75.73,1.61,1.56.76,3.3C0,18.75-1,22,1.77,25c1.64,1.74,4.75,1.89,6.43,2h.37c2.82.15,3.51.48,3.68.66A1,1,0,0,0,13,28h0a1.05,1.05,0,0,0,.75-.34c.17-.18.86-.51,3.68-.66h.37c1.68-.08,4.8-.23,6.43-2,2.83-3,1.74-6.27.67-8.46-.85-1.74,0-2.57.76-3.3l0,0a1,1,0,0,0,.3-.76,1,1,0,0,0-.36-.73l-3-2.5A1,1,0,0,0,22,9Z"/>
  </g>
  <path fill="none" d="M0,9H26V29H0z"/>
  <path fill="none" d="M0,0H26V38H0z"/>
  <path fill="#fff" d="M3.92,0H22.08A.87.87,0,0,1,23,.86V7.14a.88.88,0,0,1-.92.86H3.92A.88.88,0,0,1,3,7.14V.86A.88.88,0,0,1,3.92,0Z"/>
  <g>
    <path fill="#5b638b" d="M8.51,3.92l.27.15L9,4.23a1.2,1.2,0,0,1,.28.47,1.62,1.62,0,0,1,.09.57A2,2,0,0,1,9.21,6a1.45,1.45,0,0,1-.37.53,1.61,1.61,0,0,1-.58.35A2.29,2.29,0,0,1,7.5,7H5V1H7.4a2.29,2.29,0,0,1,.76.12,1.77,1.77,0,0,1,.59.33A1.41,1.41,0,0,1,9.12,2a1.79,1.79,0,0,1,.13.68A1.37,1.37,0,0,1,8.51,3.92Zm-1.2-.5a.76.76,0,0,0,.56-.19.63.63,0,0,0,.21-.5.63.63,0,0,0-.21-.5A.76.76,0,0,0,7.31,2H6.17V3.42Zm.07,2.52A.81.81,0,0,0,8,5.74a.7.7,0,0,0,.21-.54A.7.7,0,0,0,8,4.66a.8.8,0,0,0-.57-.19H6.17V5.94Z"/>
    <path fill="#5b638b" d="M14.65,4.93a2.21,2.21,0,0,1-.17.87,2.21,2.21,0,0,1-.47.66,2.14,2.14,0,0,1-.7.42,2.39,2.39,0,0,1-.86.15,2.43,2.43,0,0,1-.86-.15,2.14,2.14,0,0,1-.7-.42,2.21,2.21,0,0,1-.47-.66,2.21,2.21,0,0,1-.17-.87V1h1.17V4.89a1.13,1.13,0,0,0,.27.81,1.14,1.14,0,0,0,1.52,0,1.09,1.09,0,0,0,.28-.81V1h1.16Z"/>
    <path fill="#5b638b" d="M19.65,5.22A1.63,1.63,0,0,1,19,6.56a2.19,2.19,0,0,1-.7.35,3.17,3.17,0,0,1-.88.12,4.18,4.18,0,0,1-1.22-.17,2.5,2.5,0,0,1-1-.62L16,5.49a1.49,1.49,0,0,0,.66.39,2.77,2.77,0,0,0,.78.11,1.39,1.39,0,0,0,.79-.19.65.65,0,0,0,.27-.56.67.67,0,0,0-.18-.49.63.63,0,0,0-.2-.13,2.49,2.49,0,0,0-.34-.08l-.71-.1a2.3,2.3,0,0,1-.68-.19,1.47,1.47,0,0,1-.48-.31,1.54,1.54,0,0,1-.43-1.18A1.94,1.94,0,0,1,15.62,2,1.66,1.66,0,0,1,16,1.46a1.94,1.94,0,0,1,.66-.38A2.65,2.65,0,0,1,17.56,1a3.25,3.25,0,0,1,1.09.16,2.31,2.31,0,0,1,.85.54l-.74.73A1.21,1.21,0,0,0,18.15,2,2.74,2.74,0,0,0,17.53,2a.92.92,0,0,0-.69.22.72.72,0,0,0-.23.53.85.85,0,0,0,0,.23.63.63,0,0,0,.13.2.83.83,0,0,0,.22.14,1.31,1.31,0,0,0,.33.09l.71.11a3.1,3.1,0,0,1,.68.16,1.38,1.38,0,0,1,.46.31,1.22,1.22,0,0,1,.36.53A2.38,2.38,0,0,1,19.65,5.22Z"/>
    <path fill="#5b638b" d="M20.25,7V5.74H21.5V7Z"/>
  </g>
</svg>
