<svg xmlns="http://www.w3.org/2000/svg" width="24" height="24" viewBox="0 0 24 24">
  <title>
    ae-d-route-3
  </title>
  <g>
    <g>
      <path fill="#64a67a" d="M1.57,18.5A1.07,1.07,0,0,1,.5,17.43V11.5A5.46,5.46,0,0,1,2.67,7.2H1.57A1.07,1.07,0,0,1,.5,6.13V1.57A1.07,1.07,0,0,1,1.57.5H4.42A1.08,1.08,0,0,1,5.5,1.57V3.29a.07.07,0,0,0,.07.07h.85a.08.08,0,0,0,.08-.07V1.57A1.07,1.07,0,0,1,7.57.5h2.85A1.08,1.08,0,0,1,11.5,1.57V3.29a.07.07,0,0,0,.07.07h.85a.08.08,0,0,0,.08-.07V1.57A1.07,1.07,0,0,1,13.57.5h2.85A1.08,1.08,0,0,1,17.5,1.57V3.29a.07.07,0,0,0,.07.07h.85a.08.08,0,0,0,.08-.07V1.57A1.07,1.07,0,0,1,19.57.5h2.85A1.08,1.08,0,0,1,23.5,1.57V6.13A1.08,1.08,0,0,1,22.42,7.2H21.34a5.22,5.22,0,0,1,2.16,4.3c0,2.5-.05,5.94-.05,5.94a1.08,1.08,0,0,1-1.08,1.06Z"/>
      <path fill="#f2df85" d="M22.42,1a.58.58,0,0,1,.58.57V6.13a.57.57,0,0,1-.58.57H19.51a.06.06,0,0,0,0,.11A4.87,4.87,0,0,1,23,11.5C23,14,23,17.43,23,17.43a.58.58,0,0,1-.58.57H1.57A.57.57,0,0,1,1,17.43V11.5A5.07,5.07,0,0,1,4.44,6.81c.06,0,.06-.11,0-.11H1.57A.56.56,0,0,1,1,6.13V1.57A.57.57,0,0,1,1.57,1H4.42A.58.58,0,0,1,5,1.57V3.29a.57.57,0,0,0,.57.57h.85A.58.58,0,0,0,7,3.29V1.57A.57.57,0,0,1,7.57,1h2.85a.58.58,0,0,1,.58.57V3.29a.57.57,0,0,0,.57.57h.85A.58.58,0,0,0,13,3.29V1.57A.57.57,0,0,1,13.57,1h2.85a.58.58,0,0,1,.58.57V3.29a.57.57,0,0,0,.57.57h.85A.58.58,0,0,0,19,3.29V1.57A.57.57,0,0,1,19.57,1h2.85m0-1H19.57A1.57,1.57,0,0,0,18,1.57,1.58,1.58,0,0,0,16.42,0H13.57A1.57,1.57,0,0,0,12,1.57,1.58,1.58,0,0,0,10.42,0H7.57A1.57,1.57,0,0,0,6,1.57,1.58,1.58,0,0,0,4.42,0H1.57A1.57,1.57,0,0,0,0,1.57V6.13A1.58,1.58,0,0,0,1.43,7.7,5.8,5.8,0,0,0,0,11.5v5.93A1.57,1.57,0,0,0,1.57,19h20.8A1.58,1.58,0,0,0,24,17.43S24,14,24,11.5a5.74,5.74,0,0,0-1.39-3.81A1.58,1.58,0,0,0,24,6.13V1.57A1.58,1.58,0,0,0,22.42,0Z"/>
    </g>
    <path fill="none" d="M0,0L24,0,24,24,0,24z"/>
  </g>
</svg>
