<svg xmlns="http://www.w3.org/2000/svg" width="39" height="20" viewBox="0 0 39 20">
  <title>
    au-state-6
  </title>
  <g>
    <path fill="#6977bf" d="M20.32,19.5C17,19.07.5,16.58.5,10c0-4.48,2.36-6.58,3.76-7.43a.48.48,0,0,1,.26-.07h30a.5.5,0,0,1,.24.06c1.73,1,3.78,3.07,3.78,7.44,0,6.6-15,9.07-18,9.5h-.13Z"/>
    <path fill="#fff" d="M34.48,3C36.24,4,38,6.06,38,10c0,6-14.1,8.5-17.62,9C16.86,18.54,1,16,1,10,1,6.06,2.87,4,4.52,3h30m0-1h-30A1,1,0,0,0,4,2.14C2.51,3.05,0,5.28,0,10c0,3,3.05,5.58,9.06,7.54A67.72,67.72,0,0,0,20.25,20h.27A55.91,55.91,0,0,0,30.85,17.5C36.26,15.54,39,13,39,10c0-4.86-2.53-7-4-7.87A1,1,0,0,0,34.48,2Z"/>
  </g>
  <path fill="none" d="M0,0H39V20H0z"/>
</svg>
