<svg xmlns="http://www.w3.org/2000/svg" width="26" height="22" viewBox="0 0 26 22">
  <title>
    br-federal-3
  </title>
  <path fill="none" d="M0,0L26,0,26,22,0,22z"/>
  <g>
    <g>
      <path fill="#fff" d="M13,21.5a.52.52,0,0,1-.35-.14c-1.53-1.5-3-2-5.65-2a28.85,28.85,0,0,0-2.95.18l-.39,0C1.77,19.52.5,18.1.5,16V3A.5.5,0,0,1,1,2.5H25a.5.5,0,0,1,.5.5V16a3.71,3.71,0,0,1-.89,2.54,3,3,0,0,1-2.26,1h0l-.41,0a20.44,20.44,0,0,0-2.49-.16c-2.73,0-4.67.64-6.1,2A.54.54,0,0,1,13,21.5Z"/>
      <path fill="#5b638b" d="M25,3V16a2.71,2.71,0,0,1-2.65,3L22,19a23.26,23.26,0,0,0-2.55-.16c-2.74,0-4.87.64-6.45,2.16-1.54-1.51-3.1-2.18-6-2.18A28.94,28.94,0,0,0,4,19l-.34,0C2.14,19,1,18,1,16V3H25m0-1H1A1,1,0,0,0,0,3V16c0,2.4,1.47,4,3.66,4l.44,0c1.14-.11,2.08-.17,2.9-.17,2.82,0,4.08.7,5.3,1.89A1,1,0,0,0,13,22a1,1,0,0,0,.69-.28c1.34-1.28,3.17-1.88,5.76-1.88a21.81,21.81,0,0,1,2.44.15,3.55,3.55,0,0,0,.46,0A3.72,3.72,0,0,0,26,16V3a1,1,0,0,0-1-1Z"/>
    </g>
  </g>
</svg>
