<svg xmlns="http://www.w3.org/2000/svg" width="26" height="23" viewBox="0 0 26 23">
  <title>
    cn-provincial-expy-3
  </title>
  <g>
    <path fill="#64a67a" d="M3,0.5L23,0.5A2.5,2.5,0,0,1,25.5,3L25.5,17A2.5,2.5,0,0,1,23,19.5L3,19.5A2.5,2.5,0,0,1,0.5,17L0.5,3A2.5,2.5,0,0,1,3,0.5"/>
    <path fill="#fff" d="M23,1a2,2,0,0,1,2,2V17a2,2,0,0,1-2,2H3a2,2,0,0,1-2-2V3A2,2,0,0,1,3,1H23m0-1H3A3,3,0,0,0,0,3V17a3,3,0,0,0,3,3H23a3,3,0,0,0,3-3V3a3,3,0,0,0-3-3Z"/>
  </g>
  <path fill="#f2df85" d="M23,1H3A2,2,0,0,0,1,3V4H25V3A2,2,0,0,0,23,1Z"/>
  <path fill="none" d="M0,0L26,0,26,23,0,23z"/>
</svg>
