<svg xmlns="http://www.w3.org/2000/svg" viewBox="0 0 17 17" height="17" width="17"><title>entrance.svg</title><rect fill="none" x="0" y="0" width="17" height="17"></rect><rect x="1" y="1" rx="1" ry="1" width="15" height="15" stroke="rgba(255,255,255,0.75)" style="stroke-linejoin:round;stroke-miterlimit:4;" fill="rgba(255,255,255,0.75)" stroke-width="2"></rect><rect x="1" y="1" width="15" height="15" rx="1" ry="1" fill="#475bcc"></rect><path fill="#fff" transform="translate(3 3)" d="M4.793,7.263A.5.5,0,0,0,5.5,7.97L7.743,5.677a.25.25,0,0,0,0-.354h0L5.489,3.042a.5.5,0,0,0-.707.707L6,5H1.5a.5.5,0,0,0,0,1H6ZM9,1H4.5a.5.5,0,0,0,0,1h4a.5.5,0,0,1,.5.5v6a.5.5,0,0,1-.5.5h-4a.5.5,0,0,0,0,1H9a1,1,0,0,0,1-1V2A1,1,0,0,0,9,1Z"></path></svg>