<svg xmlns="http://www.w3.org/2000/svg" width="28" height="22" viewBox="0 0 28 22">
  <title>
    mx-federal-4
  </title>
  <g>
    <path fill="#fff" d="M13.91,21.49C9.88,20.76.5,18.23.5,10.5a.48.48,0,0,1,.27-.44A1.87,1.87,0,0,0,2,8.5,1.87,1.87,0,0,0,.77,6.94.48.48,0,0,1,.5,6.5V4a.5.5,0,0,1,.24-.43l5-3A.48.48,0,0,1,6,.5a.57.57,0,0,1,.31.1A6.87,6.87,0,0,0,10,2,6.47,6.47,0,0,0,13.69.6.5.5,0,0,1,14,.5a.49.49,0,0,1,.28.09A7.53,7.53,0,0,0,18,2,6.53,6.53,0,0,0,21.7.6.45.45,0,0,1,22,.5a.48.48,0,0,1,.26.07l5,3A.5.5,0,0,1,27.5,4V6.5a.49.49,0,0,1-.27.44A1.87,1.87,0,0,0,26,8.5a1.87,1.87,0,0,0,1.19,1.56.49.49,0,0,1,.27.43c.15,8.3-13.27,11-13.41,11h-.18Z"/>
    <path fill="#5b638b" d="M22,1l5,3V6.5c-1.95,1-1.95,3,0,4,.13,7.2-10.92,10.1-13,10.5-2.21-.4-13-2.5-13-10.5,2-1,2-3,0-4V4L6,1a7.4,7.4,0,0,0,4,1.5A7,7,0,0,0,14,1a7.82,7.82,0,0,0,4,1.5A7,7,0,0,0,22,1M6,0a1,1,0,0,0-.51.14l-5,3A1,1,0,0,0,0,4V6.5a1,1,0,0,0,.54.89A1.41,1.41,0,0,1,1.46,8.5,1.41,1.41,0,0,1,.54,9.61,1,1,0,0,0,0,10.5C0,18.61,9.67,21.23,13.82,22L14,22l.19,0c.14,0,14-2.79,13.81-11.5a1,1,0,0,0-.54-.87,1.41,1.41,0,0,1-.92-1.11,1.41,1.41,0,0,1,.92-1.11A1,1,0,0,0,28,6.5V4a1,1,0,0,0-.49-.86l-5-3A1,1,0,0,0,22,0a1,1,0,0,0-.61.21A6.08,6.08,0,0,1,18,1.5,7,7,0,0,1,14.56.17,1,1,0,0,0,14,0a1,1,0,0,0-.61.21A6.08,6.08,0,0,1,10,1.5,6.38,6.38,0,0,1,6.61.21,1,1,0,0,0,6,0Z"/>
  </g>
  <path fill="#5b638b" d="M27,5H1A.5.5,0,0,1,1,4H27a.5.5,0,0,1,0,1Z"/>
</svg>
