<svg xmlns="http://www.w3.org/2000/svg" width="26" height="20" viewBox="0 0 26 20">
  <title>
    ro-national-3
  </title>
  <g>
    <path fill="#bf6969" d="M13,19.5a.51.51,0,0,1-.42-.26A4.21,4.21,0,0,0,9,17.5c-3.16,0-8.5-1.06-8.5-5a5.51,5.51,0,0,1,.55-2.36A4.58,4.58,0,0,0,1.5,8,4.26,4.26,0,0,0,.59,5.29a.49.49,0,0,1,.06-.64l4-4A.47.47,0,0,1,5,.5a.57.57,0,0,1,.28.08A14.45,14.45,0,0,0,12.82,2.5H13A14.93,14.93,0,0,0,20.74.57.48.48,0,0,1,21,.5a.47.47,0,0,1,.35.15l4,4a.49.49,0,0,1,.06.64A4.26,4.26,0,0,0,24.5,8,4.58,4.58,0,0,0,25,10.12a5.51,5.51,0,0,1,.55,2.36c0,4-5.34,5-8.5,5a4.25,4.25,0,0,0-3.58,1.78.51.51,0,0,1-.42.22Z"/>
    <path fill="#fff" d="M21,1l4,4a4.76,4.76,0,0,0-1,3,5.1,5.1,0,0,0,.5,2.34,5,5,0,0,1,.5,2.14C25,16,20,17,17,17a4.77,4.77,0,0,0-4,2,4.71,4.71,0,0,0-4-2c-3,0-8-1-8-4.52a5,5,0,0,1,.5-2.14A5.1,5.1,0,0,0,2,8,4.76,4.76,0,0,0,1,5L5,1a15,15,0,0,0,7.82,2H13a15.58,15.58,0,0,0,8-2m0-1a1.07,1.07,0,0,0-.52.14A14.55,14.55,0,0,1,13,2h-.18A14,14,0,0,1,5.56.17,1,1,0,0,0,5,0a1,1,0,0,0-.71.29l-4,4A1,1,0,0,0,.18,5.58,3.72,3.72,0,0,1,1,8,4.22,4.22,0,0,1,.6,9.91,6,6,0,0,0,0,12.48C0,16.84,5.66,18,9,18a3.77,3.77,0,0,1,3.13,1.49A1,1,0,0,0,13,20h0a1,1,0,0,0,.83-.45A3.76,3.76,0,0,1,17,18c7.1,0,9-3.47,9-5.52a6,6,0,0,0-.6-2.57A4.22,4.22,0,0,1,25,8a3.72,3.72,0,0,1,.82-2.42,1,1,0,0,0-.11-1.29l-4-4A1,1,0,0,0,21,0Z"/>
  </g>
</svg>
