<svg xmlns="http://www.w3.org/2000/svg" viewBox="0 0 21 21" height="21" width="21"><title>skateboard-15.svg</title><rect fill="none" x="0" y="0" width="21" height="21"></rect><path fill="rgba(255,255,255,0.75)" transform="translate(3 3)" d="M11,8H4A2.0024,2.0024,0,0,1,2,6H3A1.001,1.001,0,0,0,4,7h7a1.001,1.001,0,0,0,1-1h1A2.0024,2.0024,0,0,1,11,8Zm0,1a1,1,0,1,0,1,1A1,1,0,0,0,11,9ZM4,9a1,1,0,1,0,1,1A1,1,0,0,0,4,9Z" style="stroke-linejoin:round;stroke-miterlimit:4;" stroke="rgba(255,255,255,0.75)" stroke-width="2"></path><path fill="#735139" transform="translate(3 3)" d="M11,8H4A2.0024,2.0024,0,0,1,2,6H3A1.001,1.001,0,0,0,4,7h7a1.001,1.001,0,0,0,1-1h1A2.0024,2.0024,0,0,1,11,8Zm0,1a1,1,0,1,0,1,1A1,1,0,0,0,11,9ZM4,9a1,1,0,1,0,1,1A1,1,0,0,0,4,9Z"></path></svg>