<svg xmlns="http://www.w3.org/2000/svg" width="30" height="20" viewBox="0 0 30 20">
  <title>
    us-bia-4
  </title>
  <g>
    <g>
      <path fill="#fff" d="M15,19C14.8,19,.5,17.33.5,6.78a.53.53,0,0,1,.08-.27L2.3,3.9a.5.5,0,0,1,.42-.22.59.59,0,0,1,.23,0l1.59.84a.43.43,0,0,0,.22.06.57.57,0,0,0,.5-.39A.73.73,0,0,0,5,3.32L3.34,2.46A.52.52,0,0,1,3.07,2V1.5a.5.5,0,0,1,.5-.5H26.43a.5.5,0,0,1,.5.5V2a.52.52,0,0,1-.27.45L25,3.32a.72.72,0,0,0-.28.9.59.59,0,0,0,.51.41.43.43,0,0,0,.22-.06l1.59-.84a.59.59,0,0,1,.23,0,.5.5,0,0,1,.42.22l1.72,2.61a.53.53,0,0,1,.08.27C29.5,17.33,15.2,19,15.05,19H15Z"/>
      <path fill="#5b638b" d="M26.43,1.5V2l-1.65.87a1.23,1.23,0,0,0-.52,1.53v0a1.06,1.06,0,0,0,1,.7A.92.92,0,0,0,25.69,5l1.59-.83L29,6.78C29,17,15,18.5,15,18.5S1,17,1,6.78l1.72-2.6L4.31,5a.92.92,0,0,0,.45.12,1.06,1.06,0,0,0,1-.7v0a1.23,1.23,0,0,0-.52-1.53L3.57,2V1.5H26.43m0-1H3.57a1,1,0,0,0-1,1V2a1,1,0,0,0,.54.89l1.65.86a.26.26,0,0,1,0,.28.37.37,0,0,1-.06.09L3.18,3.29a1,1,0,0,0-.46-.11,1,1,0,0,0-.84.45L.16,6.23A1.1,1.1,0,0,0,0,6.78c0,11,14.74,12.7,14.89,12.71h.22C15.26,19.48,30,17.77,30,6.78a1.1,1.1,0,0,0-.16-.55l-1.72-2.6a1,1,0,0,0-.84-.45,1,1,0,0,0-.46.11l-1.59.83s0,0,0-.06a.27.27,0,0,1,0-.3l1.65-.86A1,1,0,0,0,27.43,2V1.5a1,1,0,0,0-1-1Z"/>
    </g>
    <path fill="none" d="M0,0L30,0,30,20,0,20z"/>
  </g>
</svg>
