<svg xmlns="http://www.w3.org/2000/svg" width="26" height="20" viewBox="0 0 26 20">
  <title>
    us-bia-3
  </title>
  <g>
    <g>
      <path fill="#fff" d="M12.92,19C12.79,19,.5,16.81.5,6.78a.52.52,0,0,1,.09-.29l1.82-2.6a.51.51,0,0,1,.41-.21.46.46,0,0,1,.23,0l1.72.85A.53.53,0,0,0,5,4.64a.63.63,0,0,0,.55-.39.73.73,0,0,0-.3-.93L3.51,2.46A.5.5,0,0,1,3.24,2V1.5a.5.5,0,0,1,.5-.5H22.26a.5.5,0,0,1,.5.5V2a.5.5,0,0,1-.27.45l-1.75.86a.71.71,0,0,0-.3.91.62.62,0,0,0,.55.41.53.53,0,0,0,.24-.06L23,3.73a.46.46,0,0,1,.23,0,.51.51,0,0,1,.41.21l1.82,2.6a.52.52,0,0,1,.09.29C25.5,16.81,13.21,19,13.08,19h-.16Z"/>
      <path fill="#5b638b" d="M22.26,1.5V2l-1.74.86A1.23,1.23,0,0,0,20,4.42v0A1.06,1.06,0,0,0,21.45,5l1.73-.85L25,6.78C25,16.5,13,18.5,13,18.5S1,16.5,1,6.78l1.82-2.6L4.55,5A1.06,1.06,0,0,0,6,4.44v0a1.23,1.23,0,0,0-.55-1.55L3.74,2V1.5H22.26m0-1H3.74a1,1,0,0,0-1,1V2a1,1,0,0,0,.55.9L5,3.77A.21.21,0,0,1,5.1,4c0,.08-.07.1-.09.1L3.27,3.28a1,1,0,0,0-.45-.1A1,1,0,0,0,2,3.6L.18,6.21A1,1,0,0,0,0,6.78C0,17.23,12.71,19.46,12.84,19.49h.32C13.29,19.46,26,17.23,26,6.78a1,1,0,0,0-.18-.57L24,3.6a1,1,0,0,0-.82-.42,1,1,0,0,0-.45.1L21,4.13h0s-.07,0-.1-.08A.22.22,0,0,1,21,3.77l1.75-.86a1,1,0,0,0,.55-.9V1.5a1,1,0,0,0-1-1Z"/>
    </g>
    <path fill="none" d="M0,0L26,0,26,20,0,20z"/>
  </g>
</svg>
