<svg xmlns="http://www.w3.org/2000/svg" width="32" height="22" viewBox="0 0 32 22">
  <title>
    us-interstate-duplex-4
  </title>
  <path fill="#6977bf" d="M1,7c0,9.32,15,12,15,12S31,16.25,31,7V6H1Z"/>
  <path fill="#bf6969" d="M1,5A5.39,5.39,0,0,1,3,1,8.11,8.11,0,0,0,8.5,3,14.57,14.57,0,0,0,16,1a14.57,14.57,0,0,0,7.5,2A8.17,8.17,0,0,0,29,1a5.41,5.41,0,0,1,2,4Z"/>
  <path fill="#fff" d="M1,5H31V6H1z"/>
  <path fill="#fff" d="M29,1a5.45,5.45,0,0,1,2,4c0,.5,0,1.54,0,2-.17,9.25-15.25,12-15.25,12S1,16.32,1,7V5A5.39,5.39,0,0,1,3,1,8.11,8.11,0,0,0,8.5,3,14.57,14.57,0,0,0,16,1a14.57,14.57,0,0,0,7.5,2A8.17,8.17,0,0,0,29,1m0-1a1,1,0,0,0-.7.29A7.18,7.18,0,0,1,23.5,2,13.87,13.87,0,0,1,16.55.17,1,1,0,0,0,16,0a1,1,0,0,0-.55.17A13.87,13.87,0,0,1,8.5,2,7.14,7.14,0,0,1,3.71.3,1,1,0,0,0,3,0a1,1,0,0,0-.58.19A6.34,6.34,0,0,0,0,5V7c0,4.21,2.74,7.8,7.93,10.37A32,32,0,0,0,15.57,20l.18,0,.18,0a33.44,33.44,0,0,0,7.82-2.6C29.07,14.78,31.92,11.2,32,7c0-.29,0-.79,0-1.26V5A6.41,6.41,0,0,0,29.58.19,1,1,0,0,0,29,0Z"/>
  <path fill="none" d="M0,0H32V22H0z"/>
</svg>
