<svg xmlns="http://www.w3.org/2000/svg" width="38" height="23" viewBox="0 0 38 23">
  <title>
    ae-s-route-4
  </title>
  <g>
    <path fill="#64a67a" d="M19,22.46a1,1,0,0,1-.6-.2l-6.16-3.78L5,18.45a1,1,0,0,1-1-1V14.35L.9,12.27a1,1,0,0,1-.4-.79,1,1,0,0,1,.38-.77L4,8.57,4,5.48a1,1,0,0,1,1-1h7.2L18.44.68A.89.89,0,0,1,19,.5a.93.93,0,0,1,.6.21l6.16,3.77,7.24,0a1,1,0,0,1,1,1V8.63l3.11,2.06a1,1,0,0,1,.41.79,1,1,0,0,1-.38.77L34,14.41l0,3.07a1,1,0,0,1-1,1H25.8l-6.24,3.84A1,1,0,0,1,19,22.46Z"/>
    <path fill="#fff" d="M19,1a.47.47,0,0,1,.3.1l6.2,3.81a.54.54,0,0,0,.3.1L33,5a.47.47,0,0,1,.48.47V8.63a.47.47,0,0,0,.19.37l3.15,2.11a.47.47,0,0,1,0,.74L33.67,14a.47.47,0,0,0-.19.37v3.11A.47.47,0,0,1,33,18H25.8a.54.54,0,0,0-.3.1l-6.2,3.81a.5.5,0,0,1-.6,0l-6.2-3.81a.54.54,0,0,0-.3-.1H5a.47.47,0,0,1-.48-.47V14.35A.47.47,0,0,0,4.33,14L1.18,11.85a.47.47,0,0,1,0-.74L4.32,9a.49.49,0,0,0,.18-.37l0-3.13A.47.47,0,0,1,5,5h7.2a.54.54,0,0,0,.3-.1L18.7,1.1A.47.47,0,0,1,19,1m0-1a1.51,1.51,0,0,0-.85.27L12.05,4H5A1.47,1.47,0,0,0,3.52,5.48l0,2.85L.62,10.28l-.05,0a1.47,1.47,0,0,0,0,2.32l.05,0,2.9,2v2.84A1.47,1.47,0,0,0,5,19h7.05l6.1,3.74a1.47,1.47,0,0,0,1.7,0L26,19H33a1.47,1.47,0,0,0,1.48-1.47V14.65l2.9-2,0,0a1.47,1.47,0,0,0,0-2.32l-.06,0L34.48,8.34V5.5A1.47,1.47,0,0,0,33,4L26,4,19.85.27A1.51,1.51,0,0,0,19,0Z"/>
  </g>
</svg>
