<svg xmlns="http://www.w3.org/2000/svg" width="38" height="20" viewBox="0 0 38 20">
  <title>
    au-national-route-5
  </title>
  <path fill="none" d="M0,0L38,0,38,20,0,20z"/>
  <g>
    <g>
      <path fill="#fff" d="M18.92,19.49c-1.47-.23-14.48-2.28-16.13-3A3.44,3.44,0,0,1,.5,13V3A.5.5,0,0,1,1,2.5H37a.5.5,0,0,1,.5.5V13a3.44,3.44,0,0,1-2.29,3.46c-1.65.75-14.66,2.8-16.13,3h-.16Z"/>
      <path fill="#5b638b" d="M37,3V13a3,3,0,0,1-2,3c-1.63.74-16,3-16,3S4.63,16.74,3,16a3,3,0,0,1-2-3V3H37m0-1H1A1,1,0,0,0,0,3V13a4,4,0,0,0,2.59,3.91c1.67.76,13.83,2.7,16.25,3.08h.32c2.42-.38,14.58-2.32,16.25-3.08A4,4,0,0,0,38,13V3a1,1,0,0,0-1-1Z"/>
    </g>
  </g>
</svg>
