<svg xmlns="http://www.w3.org/2000/svg" width="18" height="20" viewBox="0 0 18 20">
  <title>
    au-state-2
  </title>
  <g>
    <path fill="#6977bf" d="M9,19.5H8.89C6.57,19,.54,16.22.5,10c0-3,1.09-6.16,2.13-7.33A.48.48,0,0,1,3,2.5H15a.47.47,0,0,1,.35.15C16.54,3.83,17.5,7.13,17.5,10c0,5.85-5.48,8.76-8.38,9.48A.25.25,0,0,1,9,19.5Z"/>
    <path fill="#fff" d="M15,3c1,1,2,4.08,2,7,0,6-6,8.5-8,9-2-.46-8-3-8-9C1,7.08,2,4.08,3,3H15m0-1H3a1,1,0,0,0-.75.34C1.13,3.61,0,6.82,0,10c.05,6.53,6.35,9.41,8.78,10A.83.83,0,0,0,9,20a1,1,0,0,0,.24,0c3-.76,8.76-3.82,8.76-10,0-3-1-6.42-2.29-7.71A1,1,0,0,0,15,2Z"/>
  </g>
  <path fill="none" d="M0,0H18V20H0z"/>
</svg>
