<svg xmlns="http://www.w3.org/2000/svg" width="28" height="22" viewBox="0 0 28 22">
  <title>
    mx-state-4
  </title>
  <g>
    <path fill="#fff" d="M13.92,21.49C13.38,21.41.5,19.31.5,9.5V1A.5.5,0,0,1,1,.5H27a.5.5,0,0,1,.5.5V9.5c.14,8.09-11.19,11.63-13.42,12h-.16Z"/>
    <path fill="#5b638b" d="M27,1V9.5c.13,7.58-10.4,11.08-13,11.5C11.27,20.58,1,17.92,1,9.5V1H27m0-1H1A1,1,0,0,0,0,1V9.5c0,3.91,2.06,7.23,6,9.6A23.32,23.32,0,0,0,13.85,22h.31a24,24,0,0,0,7.9-3.21c4-2.52,6-5.73,5.94-9.3V1a1,1,0,0,0-1-1Z"/>
  </g>
  <path fill="#5b638b" d="M0,3L28,3,28,4,0,4z"/>
</svg>
