<svg xmlns="http://www.w3.org/2000/svg" viewBox="0 0 17 17" height="17" width="17"><title>skateboard-11.svg</title><rect fill="none" x="0" y="0" width="17" height="17"></rect><path fill="rgba(255,255,255,0.75)" transform="translate(3 3)" d="M8,6H3A2.0024,2.0024,0,0,1,1,4H2A1.001,1.001,0,0,0,3,5H8A1.001,1.001,0,0,0,9,4h1A2.0024,2.0024,0,0,1,8,6ZM8,7A1,1,0,1,0,9,8,1,1,0,0,0,8,7ZM3,7A1,1,0,1,0,4,8,1,1,0,0,0,3,7Z" style="stroke-linejoin:round;stroke-miterlimit:4;" stroke="rgba(255,255,255,0.75)" stroke-width="2"></path><path fill="#735139" transform="translate(3 3)" d="M8,6H3A2.0024,2.0024,0,0,1,1,4H2A1.001,1.001,0,0,0,3,5H8A1.001,1.001,0,0,0,9,4h1A2.0024,2.0024,0,0,1,8,6ZM8,7A1,1,0,1,0,9,8,1,1,0,0,0,8,7ZM3,7A1,1,0,1,0,4,8,1,1,0,0,0,3,7Z"></path></svg>