<svg xmlns="http://www.w3.org/2000/svg" width="20" height="38" viewBox="0 0 20 38">
  <title>
    us-highway-business-2
  </title>
  <path fill="#fff" d="M.92,0H19.08A.87.87,0,0,1,20,.86V7.14a.88.88,0,0,1-.92.86H.92A.88.88,0,0,1,0,7.14V.86A.88.88,0,0,1,.92,0Z"/>
  <path fill="none" d="M0,0H20V38H0z"/>
  <g>
    <path fill="#fff" d="M10,27.5a.52.52,0,0,1-.38-.17A3.56,3.56,0,0,0,7,26.5a6.39,6.39,0,0,1-4.84-1.82c-2.61-2.79-1.58-5.84-.57-7.9s-.08-3.12-.87-3.89a.54.54,0,0,1-.17-.4.49.49,0,0,1,.16-.38l3-2.49A.49.49,0,0,1,4,9.5h.06a.5.5,0,0,1,.34.2A3.41,3.41,0,0,0,7,11,3.63,3.63,0,0,0,9.62,9.67.5.5,0,0,1,10,9.5h0a.5.5,0,0,1,.38.17A3.53,3.53,0,0,0,13,11a3.53,3.53,0,0,0,2.64-1.32A.48.48,0,0,1,16,9.5a.49.49,0,0,1,.32.12l3,2.49a.51.51,0,0,1,.18.37.51.51,0,0,1-.15.37c-.83.8-1.91,1.86-.9,3.93s2,5.11-.59,7.9a6.33,6.33,0,0,1-4.79,1.82c-1.18.06-2.1.16-2.69.83A.52.52,0,0,1,10,27.5Z"/>
    <path fill="#5b638b" d="M16,10l3,2.49c-.78.76-2.19,2.08-1,4.51s1.69,5-.5,7.33A5.83,5.83,0,0,1,13,26a4,4,0,0,0-3,1,4,4,0,0,0-3-1,5.83,5.83,0,0,1-4.5-1.67C.31,22,.81,19.45,2,17s-.23-3.75-1-4.51L4,10a3.89,3.89,0,0,0,3,1.5A4.11,4.11,0,0,0,10,10a4,4,0,0,0,3,1.5A4,4,0,0,0,16,10m0-1a1,1,0,0,0-.77.36A3,3,0,0,1,13,10.5a3,3,0,0,1-2.22-1.15,1,1,0,0,0-1.52,0A3.17,3.17,0,0,1,7,10.5a2.89,2.89,0,0,1-2.2-1.1A1,1,0,0,0,4.11,9H4a1,1,0,0,0-.64.23l-3,2.5a1,1,0,0,0-.36.73,1,1,0,0,0,.3.75l0,0c.76.73,1.62,1.57.77,3.31-.62,1.26-2.49,5.1.66,8.46A6.84,6.84,0,0,0,6.9,27H7a3.17,3.17,0,0,1,2.3.66,1,1,0,0,0,1.5,0,3.17,3.17,0,0,1,2.3-.66h0a6.84,6.84,0,0,0,5.13-2c3.16-3.36,1.28-7.2.67-8.46-.85-1.75,0-2.58.76-3.32a1,1,0,0,0,.32-.77,1,1,0,0,0-.34-.74l-3-2.5A1,1,0,0,0,16,9Z"/>
  </g>
  <g>
    <path fill="#5b638b" d="M5.51,3.92l.27.15L6,4.23a1.2,1.2,0,0,1,.28.47,1.62,1.62,0,0,1,.09.57A2,2,0,0,1,6.21,6a1.45,1.45,0,0,1-.37.53,1.61,1.61,0,0,1-.58.35A2.29,2.29,0,0,1,4.5,7H2V1H4.4a2.29,2.29,0,0,1,.76.12,1.77,1.77,0,0,1,.59.33A1.41,1.41,0,0,1,6.12,2a1.79,1.79,0,0,1,.13.68A1.37,1.37,0,0,1,5.51,3.92Zm-1.2-.5a.76.76,0,0,0,.56-.19.63.63,0,0,0,.21-.5.63.63,0,0,0-.21-.5A.76.76,0,0,0,4.31,2H3.17V3.42Zm.07,2.52A.81.81,0,0,0,5,5.74a.7.7,0,0,0,.21-.54A.7.7,0,0,0,5,4.66a.8.8,0,0,0-.57-.19H3.17V5.94Z"/>
    <path fill="#5b638b" d="M11.65,4.93a2.21,2.21,0,0,1-.17.87,2.21,2.21,0,0,1-.47.66,2.14,2.14,0,0,1-.7.42A2.39,2.39,0,0,1,9.45,7a2.43,2.43,0,0,1-.86-.15,2.14,2.14,0,0,1-.7-.42,2.21,2.21,0,0,1-.47-.66,2.21,2.21,0,0,1-.17-.87V1H8.42V4.89a1.13,1.13,0,0,0,.27.81,1.14,1.14,0,0,0,1.52,0,1.09,1.09,0,0,0,.28-.81V1h1.16Z"/>
    <path fill="#5b638b" d="M16.65,5.22A1.63,1.63,0,0,1,16,6.56a2.19,2.19,0,0,1-.7.35,3.17,3.17,0,0,1-.88.12,4.18,4.18,0,0,1-1.22-.17,2.5,2.5,0,0,1-1-.62L13,5.49a1.49,1.49,0,0,0,.66.39,2.77,2.77,0,0,0,.78.11,1.39,1.39,0,0,0,.79-.19.65.65,0,0,0,.27-.56.67.67,0,0,0-.18-.49.63.63,0,0,0-.2-.13,2.49,2.49,0,0,0-.34-.08l-.71-.1a2.3,2.3,0,0,1-.68-.19,1.47,1.47,0,0,1-.48-.31,1.54,1.54,0,0,1-.43-1.18A1.94,1.94,0,0,1,12.62,2,1.66,1.66,0,0,1,13,1.46a1.94,1.94,0,0,1,.66-.38A2.65,2.65,0,0,1,14.56,1a3.25,3.25,0,0,1,1.09.16,2.31,2.31,0,0,1,.85.54l-.74.73A1.21,1.21,0,0,0,15.15,2,2.74,2.74,0,0,0,14.53,2a.92.92,0,0,0-.69.22.72.72,0,0,0-.23.53.85.85,0,0,0,0,.23.63.63,0,0,0,.13.2.83.83,0,0,0,.22.14,1.31,1.31,0,0,0,.33.09l.71.11a3.1,3.1,0,0,1,.68.16,1.38,1.38,0,0,1,.46.31,1.22,1.22,0,0,1,.36.53A2.38,2.38,0,0,1,16.65,5.22Z"/>
    <path fill="#5b638b" d="M17.25,7V5.74H18.5V7Z"/>
  </g>
</svg>
