<svg xmlns="http://www.w3.org/2000/svg" width="30" height="24" viewBox="0 0 30 24">
  <title>
    ae-d-route-4
  </title>
  <g>
    <g>
      <path fill="#64a67a" d="M1.6,18A1.07,1.07,0,0,1,.52,16.93v-5.5A5,5,0,0,1,2.65,7.16h-1A1.07,1.07,0,0,1,.52,6.09V1.57A1.07,1.07,0,0,1,1.6.5H4.41A1.08,1.08,0,0,1,5.5,1.57v1.7a.09.09,0,0,0,.09.07h.84a.09.09,0,0,0,.09-.07V1.57A1.07,1.07,0,0,1,7.6.5h2.81A1.08,1.08,0,0,1,11.5,1.57v1.7a.09.09,0,0,0,.09.07h.82a.09.09,0,0,0,.09-.07V1.57A1.08,1.08,0,0,1,13.59.5h2.82A1.08,1.08,0,0,1,17.5,1.57v1.7a.09.09,0,0,0,.09.07h.82a.09.09,0,0,0,.09-.07V1.57A1.08,1.08,0,0,1,19.59.5h2.82A1.08,1.08,0,0,1,23.5,1.57v1.7a.09.09,0,0,0,.09.07h.82a.09.09,0,0,0,.09-.07V1.57A1.08,1.08,0,0,1,25.59.5h2.82A1.08,1.08,0,0,1,29.5,1.57V6.09a1.08,1.08,0,0,1-1.09,1.07H27.35a5,5,0,0,1,2.15,4.27v5.5A1.08,1.08,0,0,1,28.41,18Z"/>
      <path fill="#f2df85" d="M28.41,1a.58.58,0,0,1,.59.57V6.09a.58.58,0,0,1-.59.57H25.5a.06.06,0,0,0,0,.11A4.77,4.77,0,0,1,29,11.43v5.5a.57.57,0,0,1-.59.57H1.6A.57.57,0,0,1,1,16.93v-5.5A4.76,4.76,0,0,1,4.51,6.77a.06.06,0,0,0,0-.11H1.6A.58.58,0,0,1,1,6.09V1.57A.58.58,0,0,1,1.6,1H4.41A.58.58,0,0,1,5,1.57v1.7a.58.58,0,0,0,.59.57h.84A.59.59,0,0,0,7,3.27V1.57A.58.58,0,0,1,7.6,1h2.81a.58.58,0,0,1,.59.57v1.7a.58.58,0,0,0,.59.57h.82A.58.58,0,0,0,13,3.27V1.57A.58.58,0,0,1,13.59,1h2.82a.58.58,0,0,1,.59.57v1.7a.58.58,0,0,0,.59.57h.82A.58.58,0,0,0,19,3.27V1.57A.58.58,0,0,1,19.59,1h2.82a.58.58,0,0,1,.59.57v1.7a.58.58,0,0,0,.59.57h.82A.58.58,0,0,0,25,3.27V1.57A.58.58,0,0,1,25.59,1h2.82m0-1H25.59A1.58,1.58,0,0,0,24,1.57V2.84h0V1.57A1.58,1.58,0,0,0,22.41,0H19.59A1.58,1.58,0,0,0,18,1.57V2.84h0V1.57A1.58,1.58,0,0,0,16.41,0H13.59A1.58,1.58,0,0,0,12,1.57V2.84h0V1.57A1.58,1.58,0,0,0,10.41,0H7.6A1.57,1.57,0,0,0,6,1.57V2.84H6V1.57A1.58,1.58,0,0,0,4.41,0H1.6A1.57,1.57,0,0,0,0,1.57V6.09A1.56,1.56,0,0,0,1.38,7.64,5.63,5.63,0,0,0,0,11.43v5.5A1.57,1.57,0,0,0,1.6,18.5H28.41A1.58,1.58,0,0,0,30,16.93v-5.5a5.63,5.63,0,0,0-1.37-3.79A1.57,1.57,0,0,0,30,6.09V1.57A1.58,1.58,0,0,0,28.41,0Z"/>
    </g>
    <path fill="none" d="M0,0L30,0,30,24,0,24z"/>
  </g>
</svg>
