<svg xmlns="http://www.w3.org/2000/svg" width="26" height="25" viewBox="0 0 26 25">
  <title>
    ae-national-3
  </title>
  <g>
    <path fill="#6977bf" d="M13.5,21a9.62,9.62,0,0,1-2.45-.31L2,19.36a.5.5,0,0,1-.43-.49V16.6a.29.29,0,0,0,0-.16H1.09a.64.64,0,0,1-.46-.24.55.55,0,0,1-.07-.51l.79-2.19-.26,0a.6.6,0,0,1-.46-.24.55.55,0,0,1-.07-.51l.79-2.19-.29,0a.61.61,0,0,1-.56-.56V8A3.33,3.33,0,0,1,1.61,5.51C1.89,5.25,2.52,5,4.89,5,5.62,5,6.3,5,6.71,5H6.9l2.25.15h.28c.47,0,1.3-.09,1.58-.69a.66.66,0,0,0-.09-.5L9.18,3.71a.67.67,0,0,1-.44-.31.64.64,0,0,1,0-.62,5.76,5.76,0,0,1,2.75-2l.1,0A4.22,4.22,0,0,1,13.05.5a2.72,2.72,0,0,1,1.76.6,3.86,3.86,0,0,1,1.07,2.77,1.16,1.16,0,0,0,.43,1,2,2,0,0,0,1.23.35l.3,0L20.11,5h.3c.36,0,.84,0,1.34,0a4,4,0,0,1,2.64.56A3.33,3.33,0,0,1,25.5,8v2.08a.61.61,0,0,1-.57.56h-.25l.76,2.17a.65.65,0,0,1-.07.51.56.56,0,0,1-.46.24h-.23l.76,2.17a.65.65,0,0,1-.07.51.56.56,0,0,1-.46.24h-.46s0,.08,0,.15v2.27a.5.5,0,0,1-.42.49L15.9,20.7A9.39,9.39,0,0,1,13.5,21Z"/>
    <path fill="#fff" d="M13.05,1a2.23,2.23,0,0,1,1.45.49,3.38,3.38,0,0,1,.88,2.36c0,1.21.94,1.82,2.15,1.82l.35,0,2.25-.15c.36,0,1,0,1.62,0a4.09,4.09,0,0,1,2.3.43A2.82,2.82,0,0,1,25,8v2.08a.07.07,0,0,1-.07.06h-.25a.51.51,0,0,0-.51.65L25,13a.06.06,0,0,1-.06.08h-.23a.51.51,0,0,0-.51.65l.8,2.19a.06.06,0,0,1-.06.08h-.46a.62.62,0,0,0-.51.65v2.26L15.82,20.2a9.12,9.12,0,0,1-4.64,0L2.06,18.86V16.6c0-.37-.17-.65-.54-.65H1.09A.06.06,0,0,1,1,15.87l.79-2.19a.5.5,0,0,0-.5-.65H1.09A.06.06,0,0,1,1,13l.79-2.19a.5.5,0,0,0-.5-.65H1.06A.06.06,0,0,1,1,10.05V8a2.85,2.85,0,0,1,.94-2.09,6.23,6.23,0,0,1,3-.43c.83,0,1.61,0,2,0l2.24.15h.31a2.11,2.11,0,0,0,2-1c.15-.32,0-1.12-.43-1.18L9.26,3.22c-.11,0-.1-.12,0-.22.38-.77,2-1.49,2.61-1.77A3.61,3.61,0,0,1,13.05,1m0-1h0a4.46,4.46,0,0,0-1.56.29l-.09,0-.1,0C10,1,8.77,1.63,8.31,2.56a1.19,1.19,0,0,0,0,1.07,1.08,1.08,0,0,0,.81.57l1.34.22a1.88,1.88,0,0,1-1,.24H9.19L6.91,4.5H6.74c-.42,0-1.11,0-1.84,0-2.53,0-3.24.33-3.63.69A3.85,3.85,0,0,0,0,8v2.08a1.06,1.06,0,0,0,.66,1L.09,12.61a1.05,1.05,0,0,0,.13,1,1,1,0,0,0,.44.36L.09,15.53a1.05,1.05,0,0,0,.13,1,1.07,1.07,0,0,0,.84.45v1.92a1,1,0,0,0,.85,1L11,21.18a10.18,10.18,0,0,0,2.52.32A10.32,10.32,0,0,0,16,21.18l8.07-1.33a1,1,0,0,0,.84-1V17a1.07,1.07,0,0,0,.84-.45,1.05,1.05,0,0,0,.13-1l-.58-1.59a1,1,0,0,0,.45-.36,1.05,1.05,0,0,0,.13-1L25.34,11a1.06,1.06,0,0,0,.66-1V8a3.85,3.85,0,0,0-1.27-2.83c-.53-.49-1.42-.69-3-.69-.51,0-1,0-1.36,0h-.3l-2.28.15-.28,0c-.75,0-1.14-.27-1.15-.81A4.32,4.32,0,0,0,15.21.79L15.13.72A3.21,3.21,0,0,0,13.05,0Z"/>
  </g>
  <path fill="none" d="M0,0H26V25H0z"/>
</svg>
