<svg xmlns="http://www.w3.org/2000/svg" viewBox="0 0 17 17" height="17" width="17"><title>fitness-centre-11.svg</title><rect fill="none" x="0" y="0" width="17" height="17"></rect><path fill="rgba(255,255,255,0.75)" transform="translate(3 3)" d="M7,6H4V5H7ZM2,3V4H1V5A.5.5,0,0,0,1,6V7H2V8H3.5V3Zm8,2V4H9V3H7.5V8H9V7h1V6a.5.5,0,0,0,0-1Z" style="stroke-linejoin:round;stroke-miterlimit:4;" stroke="rgba(255,255,255,0.75)" stroke-width="2"></path><path fill="#735139" transform="translate(3 3)" d="M7,6H4V5H7ZM2,3V4H1V5A.5.5,0,0,0,1,6V7H2V8H3.5V3Zm8,2V4H9V3H7.5V8H9V7h1V6a.5.5,0,0,0,0-1Z"></path></svg>