<svg xmlns="http://www.w3.org/2000/svg" width="22" height="16" viewBox="0 0 22 16">
  <title>
    gr-motorway-2
  </title>
  <g>
    <g>
      <path fill="#64a67a" d="M2.93,13.5A2.64,2.64,0,0,1,.5,11V5A2.64,2.64,0,0,1,2.93,2.5L11,.48l8.08,2A2.64,2.64,0,0,1,21.5,5v6a2.64,2.64,0,0,1-2.43,2.5l-8.08,2Z"/>
      <path fill="#fff" d="M11,1l8,2a2.15,2.15,0,0,1,2,2v6a2.15,2.15,0,0,1-2,2l-8,2L3,13a2.15,2.15,0,0,1-2-2V5A2.15,2.15,0,0,1,3,3l8-2m0-1L10.75,0,2.86,2A3.18,3.18,0,0,0,0,5v6a3.18,3.18,0,0,0,2.86,3l7.89,2L11,16l.24-.06,7.91-2A3.18,3.18,0,0,0,22,11V5a3.18,3.18,0,0,0-2.86-3L11.23,0,11,0Z"/>
    </g>
    <g>
      <path fill="#64a67a" d="M2.93,13.5A2.64,2.64,0,0,1,.5,11V5A2.64,2.64,0,0,1,2.93,2.5L11,.48l8.08,2A2.64,2.64,0,0,1,21.5,5v6a2.64,2.64,0,0,1-2.43,2.5l-8.08,2Z"/>
      <path fill="#fff" d="M11,1l8,2a2.15,2.15,0,0,1,2,2v6a2.15,2.15,0,0,1-2,2l-8,2L3,13a2.15,2.15,0,0,1-2-2V5A2.15,2.15,0,0,1,3,3l8-2m0-1L10.75,0,2.86,2A3.18,3.18,0,0,0,0,5v6a3.18,3.18,0,0,0,2.86,3l7.89,2L11,16l.24-.06,7.91-2A3.18,3.18,0,0,0,22,11V5a3.18,3.18,0,0,0-2.86-3L11.23,0,11,0Z"/>
    </g>
  </g>
</svg>
