<svg xmlns="http://www.w3.org/2000/svg" width="20" height="20" viewBox="0 0 20 20">
  <title>
    ro-communal-2
  </title>
  <path fill="none" d="M0,0L20,0,20,20,0,20z"/>
  <g>
    <g>
      <path fill="#f2df85" d="M9.81,19.46c-.06,0-5.4-2.27-7-3A3.44,3.44,0,0,1,.5,13V2.5h19V13a3.44,3.44,0,0,1-2.29,3.46c-1.62.73-7,3-7,3l-.19.08Z"/>
      <path fill="#5b638b" d="M19,3V13a3,3,0,0,1-2,3c-1.63.74-7,3-7,3s-5.37-2.26-7-3a3,3,0,0,1-2-3V3H19m1-1H0V13a4,4,0,0,0,2.59,3.91c1.62.74,6.8,2.92,7,3l.39.16.39-.16c.22-.09,5.4-2.27,7-3A4,4,0,0,0,20,13V2Z"/>
    </g>
  </g>
</svg>
