<svg xmlns="http://www.w3.org/2000/svg" width="20" height="20" viewBox="0 0 20 20">
  <title>
    tw-county-township-2
  </title>
  <g>
    <path fill="#fff" d="M2.9699999999999998,0.59L16.97,0.59A2.5,2.5,0,0,1,19.47,3.09L19.47,17.09A2.5,2.5,0,0,1,16.97,19.59L2.9699999999999998,19.59A2.5,2.5,0,0,1,0.47,17.09L0.47,3.09A2.5,2.5,0,0,1,2.9699999999999998,0.59"/>
    <path fill="#5b638b" d="M17,1.09a2,2,0,0,1,2,2v14a2,2,0,0,1-2,2H3a2,2,0,0,1-2-2v-14a2,2,0,0,1,2-2H17m0-1H3a3,3,0,0,0-3,3v14a3,3,0,0,0,3,3H17a3,3,0,0,0,3-3v-14a3,3,0,0,0-3-3Z"/>
  </g>
</svg>
