<svg xmlns="http://www.w3.org/2000/svg" width="21" height="22" viewBox="0 0 21 22">
  <title>
    tw-national-2
  </title>
  <g>
    <path fill="#fff" d="M14.17,19.5a4.27,4.27,0,0,1-3.42-1.73c-.09-.13-.17-.26-.25-.4-.08.14-.16.27-.25.4a4.24,4.24,0,0,1-5.9.93,4.2,4.2,0,0,1-1-5.82A4.2,4.2,0,0,1,4.69,4.69a4.41,4.41,0,0,1,1.3.2L6.32,5c0-.11,0-.21,0-.31a4.19,4.19,0,1,1,8.38,0c0,.1,0,.2,0,.31L15,4.89a4.41,4.41,0,0,1,1.3-.2,4.2,4.2,0,0,1,1.32,8.19,4.2,4.2,0,0,1-1,5.82,4.24,4.24,0,0,1-2.48.8Z"/>
    <path fill="#64a67a" d="M10.5,1a3.7,3.7,0,0,1,3.69,3.71,3.57,3.57,0,0,1-.26,1.35,3.62,3.62,0,0,1,1.23-.69,3.83,3.83,0,0,1,1.15-.18,3.71,3.71,0,0,1,1.14,7.23,4,4,0,0,1-.76.16,3.62,3.62,0,0,1,.49.54,3.71,3.71,0,1,1-6.68,2.69,3.66,3.66,0,0,1-.66,1.66,3.71,3.71,0,0,1-6-4.35,3.62,3.62,0,0,1,.49-.54,4,4,0,0,1-.76-.16A3.71,3.71,0,0,1,4.69,5.19a3.83,3.83,0,0,1,1.15.18,3.62,3.62,0,0,1,1.23.69,3.57,3.57,0,0,1-.26-1.35A3.7,3.7,0,0,1,10.5,1m0-1A4.71,4.71,0,0,0,5.82,4.33a4.32,4.32,0,0,0-1.13-.14,4.7,4.7,0,0,0-2.05,8.93A4.72,4.72,0,0,0,6.83,20a4.76,4.76,0,0,0,3.67-1.74A4.76,4.76,0,0,0,14.17,20a4.71,4.71,0,0,0,4.19-6.88,4.7,4.7,0,0,0-2.05-8.93,4.32,4.32,0,0,0-1.13.14A4.71,4.71,0,0,0,10.5,0Z"/>
  </g>
  <path fill="none" d="M0,0L21,0,21,22,0,22z"/>
</svg>
