<svg xmlns="http://www.w3.org/2000/svg" width="20" height="20" viewBox="0 0 20 20">
  <title>
    us-bia-2
  </title>
  <g>
    <g>
      <path fill="#fff" d="M10,19a.41.41,0,0,1-.16,0C9.79,18.94.5,15.76.5,6.79A.52.52,0,0,1,.59,6.5L2.4,3.9a.48.48,0,0,1,.41-.21A.44.44,0,0,1,3,3.74l1.59.79a.6.6,0,0,0,.3.07.66.66,0,0,0,.3-1.26L3.49,2.47A.5.5,0,0,1,3.21,2V1.51a.5.5,0,0,1,.5-.5H16.36a.5.5,0,0,1,.5.5V2a.49.49,0,0,1-.27.44l-1.74.87a.67.67,0,0,0-.32.85.68.68,0,0,0,.63.41.66.66,0,0,0,.3-.07L17,3.74a.48.48,0,0,1,.23-.05.49.49,0,0,1,.41.21l1.8,2.6a.45.45,0,0,1,.09.29c-.07,9-9.28,12.15-9.37,12.18Z"/>
      <path fill="#5b638b" d="M16.36,1.51V2l-1.73.86a1.17,1.17,0,0,0-.56,1.49,1.18,1.18,0,0,0,1.09.72A1.23,1.23,0,0,0,15.68,5l1.59-.79,1.8,2.6C19,15.5,10,18.5,10,18.5s-9-3-9-11.71l1.81-2.6L4.4,5a1.17,1.17,0,1,0,1-2.09L3.71,2V1.51H16.36m0-1H3.71a1,1,0,0,0-1,1V2a1,1,0,0,0,.56.89L5,3.78A.18.18,0,0,1,5.08,4a.18.18,0,0,1-.16.1.12.12,0,0,1-.08,0L3.25,3.29A1,1,0,0,0,2,3.62L.18,6.22A1,1,0,0,0,0,6.79c0,9.32,9.63,12.62,9.72,12.66a1.13,1.13,0,0,0,.32.05,1.12,1.12,0,0,0,.31-.05c.1,0,9.64-3.34,9.72-12.65a1,1,0,0,0-.17-.58l-1.81-2.6a1,1,0,0,0-.82-.43,1,1,0,0,0-.45.1l-1.59.79a.1.1,0,0,1-.07,0A.17.17,0,0,1,15,4a.17.17,0,0,1,.08-.22l1.73-.86A1,1,0,0,0,17.36,2V1.51a1,1,0,0,0-1-1Z"/>
    </g>
    <path fill="none" d="M0,0L20,0,20,20,0,20z"/>
  </g>
</svg>
