<svg xmlns="http://www.w3.org/2000/svg" width="38" height="20" viewBox="0 0 38 20">
  <title>
    us-highway-duplex-5
  </title>
  <g>
    <path fill="#fff" d="M19,18.5a.48.48,0,0,1-.41-.22c-.21-.31-1.05-.82-4.27-.82-.61,0-1.19,0-1.68,0H11.47l-.57,0c-3.63-.14-7.5-.46-8.76-1.8C-.48,12.89.56,9.84,1.56,7.78S1.49,4.67.7,3.9a.6.6,0,0,1-.18-.4.53.53,0,0,1,.16-.38l3-2.5A.49.49,0,0,1,4.3.6c1.78,1.33,5.63,1.9,7.2,1.9S16.84,2,18.7.6a.5.5,0,0,1,.6,0C21.16,2,25,2.5,26.5,2.5s5.39-.57,7.19-1.9a.49.49,0,0,1,.62,0l3,2.5a.5.5,0,0,1,.18.36.54.54,0,0,1-.15.38c-.83.8-1.91,1.85-.9,3.92s2,5.11-.59,7.9c-1.25,1.33-5.13,1.66-8.76,1.8l-.57,0H25.37c-.46,0-1,0-1.59,0-3.32,0-4.16.51-4.36.82a.51.51,0,0,1-.42.22Z"/>
    <path fill="#5b638b" d="M34,1l3,2.5c-.78.76-2.19,2.06-1,4.5s1.69,5-.5,7.33c-1.44,1.53-7.57,1.6-9,1.67h-.26c-.53,0-1.45-.05-2.46-.05-1.92,0-4.18.16-4.78,1-.6-.89-2.79-1.05-4.68-1.05-1.06,0-2,.05-2.58.05H11.5c-1.43-.07-7.56-.14-9-1.67C.31,13,.81,10.45,2,8S1.78,4.26,1,3.5L4,1c2,1.47,6,2,7.5,2S17,2.53,19,1c2,1.53,6,2,7.5,2S32,2.47,34,1m0-1a.92.92,0,0,0-.59.2C31.69,1.46,28,2,26.5,2S21.26,1.47,19.61.21a1,1,0,0,0-1.22,0C16.74,1.47,13.09,2,11.5,2S6.28,1.46,4.6.2A1,1,0,0,0,4,0a1,1,0,0,0-.64.23l-3,2.5A1,1,0,0,0,0,3.46a1,1,0,0,0,.3.76l0,0C1.1,5,2,5.82,1.11,7.56,0,9.75-1,13,1.77,16c1.38,1.47,5.2,1.81,9.11,2l.57,0h1.2c.49,0,1.06,0,1.67,0,3.4,0,3.84.59,3.85.61A1,1,0,0,0,19,19h0a1,1,0,0,0,.83-.44c0-.06.55-.6,4-.6.58,0,1.12,0,1.58,0l.88,0h.31l.57,0c3.92-.15,7.73-.49,9.11-2,2.83-3,1.74-6.27.67-8.46-.85-1.74,0-2.57.76-3.3l0,0a1,1,0,0,0,.3-.76,1,1,0,0,0-.36-.73l-3-2.5A1,1,0,0,0,34,0Z"/>
  </g>
  <path fill="none" d="M0,0H32V20H0z"/>
  <path fill="none" d="M0,0H38V20H0z"/>
</svg>
