<svg xmlns="http://www.w3.org/2000/svg" width="16" height="16" viewBox="0 0 16 16">
  <title>wetland</title>
  <path d="M6.32,14H2.18A0.26,0.26,0,0,1,2,13.7a0.24,0.24,0,0,1,.18-0.2H6.31a0.25,0.25,0,0,1,.18.3A0.24,0.24,0,0,1,6.32,14Z" fill="#87c8f4"/>
  <path d="M11.32,5H7.18A0.26,0.26,0,0,1,7,4.7a0.24,0.24,0,0,1,.18-0.2h4.13a0.25,0.25,0,0,1,.18.3A0.24,0.24,0,0,1,11.32,5Z" fill="#87c8f4"/>
  <path d="M4.25,14A0.25,0.25,0,0,1,4,13.93l-1.47-1.5a0.25,0.25,0,0,1,.36-0.36l1.32,1.32,1.32-1.32a0.25,0.25,0,0,1,.36.36l-1.5,1.5A0.24,0.24,0,0,1,4.25,14Z" fill="#87c8f4"/>
  <path d="M4.2,14A0.24,0.24,0,0,1,4,13.75V11.3a0.25,0.25,0,1,1,.49,0v2.45a0.24,0.24,0,0,1-.22.25H4.2Z" fill="#87c8f4"/>
  <path d="M14.79,9.5H13.31A0.25,0.25,0,0,1,13,9.32v0A0.25,0.25,0,0,1,13.19,9H14.8A0.25,0.25,0,1,1,14.79,9.5Z" fill="#87c8f4"/>
  <path d="M9.22,5h0A0.26,0.26,0,0,1,9,4.89L8,3.36A0.26,0.26,0,0,1,8.12,3h0a0.27,0.27,0,0,1,.29.06L9.22,4.29,10,3.08a0.27,0.27,0,0,1,.37,0,0.26,0.26,0,0,1,.06.28l-1,1.53A0.26,0.26,0,0,1,9.22,5Z" fill="#87c8f4"/>
  <rect width="16" height="16" fill="none"/>
</svg>
