<svg xmlns="http://www.w3.org/2000/svg" width="20" height="20" viewBox="0 0 20 20">
  <title>
    za-national-2
  </title>
  <g>
    <path fill="#6977bf" d="M5,17.5a.49.49,0,0,1-.46-.31l-4-10a.52.52,0,0,1,.18-.61l9-6a.53.53,0,0,1,.56,0l9,6a.52.52,0,0,1,.18.61l-4,10a.49.49,0,0,1-.46.31Z"/>
    <path fill="#fff" d="M10,1l9,6L15,17H5L1,7l9-6m0-1a1,1,0,0,0-.55.17l-9,6a1,1,0,0,0-.38,1.2l4,10A1,1,0,0,0,5,18H15a1,1,0,0,0,.93-.63l4-10a1,1,0,0,0-.38-1.2l-9-6A1,1,0,0,0,10,0Z"/>
  </g>
  <path fill="none" d="M0,0H20V20H0z"/>
</svg>
