<svg xmlns="http://www.w3.org/2000/svg" width="28" height="21" viewBox="0 0 28 21">
  <title>
    au-tourist-3
  </title>
  <path fill="none" d="M0,0L28,0,28,21,0,21z"/>
  <g>
    <g>
      <path fill="#8c715e" d="M6.69,19.5a1.51,1.51,0,0,1-1.4-1L.89,7.11a1.51,1.51,0,0,1,.87-1.94L13.46.67a1.51,1.51,0,0,1,1.08,0l11.71,4.5a1.51,1.51,0,0,1,.86,1.94l-4.4,11.43a1.51,1.51,0,0,1-1.4,1Z"/>
      <path fill="#fff" d="M14,1.07a.92.92,0,0,1,.36.07l11.71,4.5a1,1,0,0,1,.57,1.29L22.25,18.36a1,1,0,0,1-.94.64H6.69a1,1,0,0,1-.94-.64L1.36,6.93a1,1,0,0,1,.57-1.29l11.71-4.5A.92.92,0,0,1,14,1.07m0-1a2.18,2.18,0,0,0-.72.13L1.58,4.71A2,2,0,0,0,.43,7.29L4.82,18.72A2,2,0,0,0,6.69,20H21.31a2,2,0,0,0,1.87-1.28L27.57,7.29a2,2,0,0,0-1.15-2.58L14.72.2A2.18,2.18,0,0,0,14,.07Z"/>
    </g>
  </g>
</svg>
