<svg xmlns="http://www.w3.org/2000/svg" width="34" height="16" viewBox="0 0 34 16">
  <title>
    gr-motorway-4
  </title>
  <g>
    <g>
      <path fill="#64a67a" d="M2.92,13.49A2.61,2.61,0,0,1,.5,11V5A2.63,2.63,0,0,1,3,2.5L16.75.5l14.33,2A2.62,2.62,0,0,1,33.5,5v6A2.63,2.63,0,0,1,31,13.5l-14.25,2Z"/>
      <path fill="#fff" d="M16.75,1,31,3a2.15,2.15,0,0,1,2,2v6a2.15,2.15,0,0,1-2,2L16.75,15,3,13a2.15,2.15,0,0,1-2-2V5A2.15,2.15,0,0,1,3,3L16.75,1m0-1-.14,0L2.92,2A3.18,3.18,0,0,0,0,5v6a3.18,3.18,0,0,0,2.92,3l13.69,2,.14,0,.14,0,14.19-2A3.17,3.17,0,0,0,34,11V5a3.17,3.17,0,0,0-2.92-3L16.89,0l-.14,0Z"/>
    </g>
    <g>
      <path fill="#64a67a" d="M2.92,13.49A2.61,2.61,0,0,1,.5,11V5A2.63,2.63,0,0,1,3,2.5L16.75.5l14.33,2A2.62,2.62,0,0,1,33.5,5v6A2.63,2.63,0,0,1,31,13.5l-14.25,2Z"/>
      <path fill="#fff" d="M16.75,1,31,3a2.15,2.15,0,0,1,2,2v6a2.15,2.15,0,0,1-2,2L16.75,15,3,13a2.15,2.15,0,0,1-2-2V5A2.15,2.15,0,0,1,3,3L16.75,1m0-1-.14,0L2.92,2A3.18,3.18,0,0,0,0,5v6a3.18,3.18,0,0,0,2.92,3l13.69,2,.14,0,.14,0,14.19-2A3.17,3.17,0,0,0,34,11V5a3.17,3.17,0,0,0-2.92-3L16.89,0l-.14,0Z"/>
    </g>
  </g>
</svg>
