<svg xmlns="http://www.w3.org/2000/svg" width="23" height="22" viewBox="0 0 23 22">
  <title>
    mx-federal-3
  </title>
  <g>
    <path fill="#fff" d="M11.5,21.5h-.11C8.12,20.75.5,18.21.5,10.5a.5.5,0,0,1,.23-.42,1.91,1.91,0,0,0,1-1.58A1.91,1.91,0,0,0,.73,6.92.5.5,0,0,1,.5,6.5V4a.48.48,0,0,1,.2-.4l4-3a.49.49,0,0,1,.64,0A5,5,0,0,0,8.25,2,4.57,4.57,0,0,0,11.15.64.54.54,0,0,1,11.5.5a.49.49,0,0,1,.32.12A5.47,5.47,0,0,0,14.75,2,4.62,4.62,0,0,0,17.66.64a.49.49,0,0,1,.64,0l4,3a.51.51,0,0,1,.2.4V6.5a.5.5,0,0,1-.23.42,1.88,1.88,0,0,0-.95,1.58,1.88,1.88,0,0,0,.95,1.58.49.49,0,0,1,.23.41c.12,8.28-10.77,11-10.88,11Z"/>
    <path fill="#5b638b" d="M18,1l4,3V6.5a2.28,2.28,0,0,0,0,4c.1,7.2-8.82,10.1-10.5,10.5C9.71,20.6,1,18.5,1,10.5a2.29,2.29,0,0,0,0-4V4L5,1A5.41,5.41,0,0,0,8.25,2.5,5.15,5.15,0,0,0,11.5,1a5.72,5.72,0,0,0,3.25,1.5A5.15,5.15,0,0,0,18,1M5,0a1,1,0,0,0-.6.2l-4,3A1,1,0,0,0,0,4V6.5a1,1,0,0,0,.46.84A1.39,1.39,0,0,1,1.18,8.5,1.39,1.39,0,0,1,.46,9.66,1,1,0,0,0,0,10.5C0,13.19,1.1,19.69,11.28,22l.22,0a.85.85,0,0,0,.23,0c.12,0,11.4-2.81,11.27-11.48a1,1,0,0,0-.46-.83,1.39,1.39,0,0,1-.72-1.16,1.39,1.39,0,0,1,.72-1.16A1,1,0,0,0,23,6.5V4a1,1,0,0,0-.4-.8l-4-3A1,1,0,0,0,18,0a1,1,0,0,0-.69.28A4.19,4.19,0,0,1,14.75,1.5,4.68,4.68,0,0,1,12.14.23,1,1,0,0,0,11.5,0a1,1,0,0,0-.69.28A4.19,4.19,0,0,1,8.25,1.5,4.47,4.47,0,0,1,5.69.28,1,1,0,0,0,5,0Z"/>
  </g>
  <path fill="#5b638b" d="M22.55,5H.55a.5.5,0,1,1,0-1h22a.5.5,0,0,1,0,1Z"/>
</svg>
