<svg xmlns="http://www.w3.org/2000/svg" width="18" height="22" viewBox="0 0 18 22">
  <title>
    mx-federal-2
  </title>
  <g>
    <path fill="#fff" d="M9,21.5H8.89A10.77,10.77,0,0,1,.5,10.5a.51.51,0,0,1,.22-.42,1.88,1.88,0,0,0,.9-1.58,1.88,1.88,0,0,0-.9-1.58A.51.51,0,0,1,.5,6.5V4a.54.54,0,0,1,.08-.28l2-3A.55.55,0,0,1,3,.5H3a.47.47,0,0,1,.35.15A4.38,4.38,0,0,0,6,2,4,4,0,0,0,8.65.65.47.47,0,0,1,9,.5a.52.52,0,0,1,.33.12A4.43,4.43,0,0,0,12,2,4,4,0,0,0,14.65.65.47.47,0,0,1,15,.5h.05a.55.55,0,0,1,.37.22l2,3A.54.54,0,0,1,17.5,4V6.5a.51.51,0,0,1-.22.42,1.83,1.83,0,0,0,0,3.16.53.53,0,0,1,.22.41c.1,7.24-6.17,10.44-8.38,11A.25.25,0,0,1,9,21.5Z"/>
    <path fill="#5b638b" d="M15,1l2,3V6.5a2.34,2.34,0,0,0,0,4c.1,7.2-6.4,10.1-8,10.5A10.25,10.25,0,0,1,1,10.5a2.34,2.34,0,0,0,0-4V4L3,1A4.81,4.81,0,0,0,6,2.5,4.57,4.57,0,0,0,9,1a5.07,5.07,0,0,0,3,1.5A4.57,4.57,0,0,0,15,1M9,0a1,1,0,0,0-.71.29A3.57,3.57,0,0,1,6,1.5,3.88,3.88,0,0,1,3.71.29,1,1,0,0,0,3,0H2.9a1,1,0,0,0-.73.45l-2,3A1,1,0,0,0,0,4V6.5a1,1,0,0,0,.44.83A1.41,1.41,0,0,1,1.12,8.5,1.41,1.41,0,0,1,.44,9.67,1,1,0,0,0,0,10.5,11.25,11.25,0,0,0,8.77,22,.91.91,0,0,0,9,22a1,1,0,0,0,.24,0c2.31-.58,8.86-3.92,8.76-11.48a1,1,0,0,0-.45-.82,1.43,1.43,0,0,1-.68-1.17,1.43,1.43,0,0,1,.68-1.17A1,1,0,0,0,18,6.5V4a1,1,0,0,0-.17-.55l-2-3A1,1,0,0,0,15.1,0H15a1,1,0,0,0-.71.29A3.57,3.57,0,0,1,12,1.5,4.09,4.09,0,0,1,9.66.25,1,1,0,0,0,9,0Z"/>
  </g>
  <path fill="#5b638b" d="M17,5H1.05a.5.5,0,1,1,0-1H17a.5.5,0,0,1,0,1Z"/>
</svg>
