<svg xmlns="http://www.w3.org/2000/svg" width="32" height="20" viewBox="0 0 32 20">
  <title>
    ro-communal-4
  </title>
  <path fill="none" d="M0,0L32,0,32,20,0,20z"/>
  <g>
    <g>
      <path fill="#f2df85" d="M15.89,19.49c-.42-.09-10.51-2.27-12.56-3C1.93,16,.5,15.15.5,13V2.5h31V13c0,2.15-1.43,3-2.83,3.47-2.05.75-12.14,2.93-12.56,3l-.11,0Z"/>
      <path fill="#5b638b" d="M31,3V13c0,1.89-1.3,2.56-2.5,3-2,.74-12.5,3-12.5,3S5.54,16.74,3.5,16C2.3,15.56,1,14.89,1,13V3H31m1-1H0V13a4.11,4.11,0,0,0,3.16,3.94c2.08.76,12.2,2.94,12.63,3L16,20l.21,0c.43-.1,10.55-2.28,12.63-3A4.11,4.11,0,0,0,32,13V2Z"/>
    </g>
  </g>
</svg>
