<svg xmlns="http://www.w3.org/2000/svg" width="20" height="20" viewBox="0 0 20 20">
  <title>
    ro-national-2
  </title>
  <g>
    <path fill="#bf6969" d="M10,19.5a.51.51,0,0,1-.42-.26A4.21,4.21,0,0,0,6,17.5c-3.19,0-5.5-2.11-5.5-5a5.51,5.51,0,0,1,.55-2.36A4.58,4.58,0,0,0,1.5,8,4.26,4.26,0,0,0,.59,5.29a.49.49,0,0,1,.06-.64l4-4A.47.47,0,0,1,5,.5a.57.57,0,0,1,.28.08A9.21,9.21,0,0,0,10.16,2.5h0A8.12,8.12,0,0,0,14.22.9l.52-.33A.48.48,0,0,1,15,.5a.47.47,0,0,1,.35.15l4,4a.49.49,0,0,1,.06.64A4.26,4.26,0,0,0,18.5,8,4.58,4.58,0,0,0,19,10.12a5.51,5.51,0,0,1,.55,2.36c0,2.91-2.31,5-5.5,5a4.25,4.25,0,0,0-3.58,1.78.51.51,0,0,1-.42.22Z"/>
    <path fill="#fff" d="M15,1l4,4a4.76,4.76,0,0,0-1,3,5.1,5.1,0,0,0,.5,2.34,5,5,0,0,1,.5,2.14C19,15.23,16.74,17,14,17a4.77,4.77,0,0,0-4,2,4.71,4.71,0,0,0-4-2c-2.74,0-5-1.77-5-4.52a5,5,0,0,1,.5-2.14A5.1,5.1,0,0,0,2,8,4.76,4.76,0,0,0,1,5L5,1a9.69,9.69,0,0,0,5.16,2h.05C12,3,13.68,1.79,15,1m0-1a1.07,1.07,0,0,0-.52.14L14,.47A7.73,7.73,0,0,1,10.21,2,8.89,8.89,0,0,1,5.57.18,1,1,0,0,0,4.29.29l-4,4A1,1,0,0,0,.18,5.58,3.72,3.72,0,0,1,1,8,4.22,4.22,0,0,1,.6,9.91,6,6,0,0,0,0,12.48C0,15.63,2.58,18,6,18a3.77,3.77,0,0,1,3.13,1.49A1,1,0,0,0,10,20h0a1,1,0,0,0,.83-.45A3.76,3.76,0,0,1,14,18c3.42,0,6-2.37,6-5.52a6,6,0,0,0-.6-2.57A4.22,4.22,0,0,1,19,8a3.72,3.72,0,0,1,.82-2.42,1,1,0,0,0-.11-1.29l-4-4A1,1,0,0,0,15,0Z"/>
  </g>
</svg>
