<svg xmlns="http://www.w3.org/2000/svg" width="26" height="38" viewBox="0 0 26 38">
  <title>
    us-highway-alternate-3
  </title>
  <g>
    <path fill="#fff" d="M13,27.5a.52.52,0,0,1-.38-.17c-.57-.65-3.08-.78-4-.82l-.37,0c-1.61-.08-4.59-.22-6.08-1.81-2.62-2.79-1.58-5.84-.58-7.9S1.49,13.67.7,12.9a.6.6,0,0,1-.18-.4.53.53,0,0,1,.16-.38l3-2.5A.49.49,0,0,1,4,9.5a.51.51,0,0,1,.36.15A6.42,6.42,0,0,0,8.5,11a6.53,6.53,0,0,0,4.14-1.35A.49.49,0,0,1,13,9.5h0a.47.47,0,0,1,.35.15A6.52,6.52,0,0,0,17.5,11a6.39,6.39,0,0,0,4.13-1.35A.51.51,0,0,1,22,9.5a.49.49,0,0,1,.32.12l3,2.5a.5.5,0,0,1,.18.36.54.54,0,0,1-.15.38c-.83.8-1.91,1.85-.9,3.92s2,5.11-.59,7.9c-1.49,1.59-4.47,1.73-6.08,1.81l-.38,0c-.94,0-3.45.17-4,.82A.52.52,0,0,1,13,27.5Z"/>
    <path fill="#5b638b" d="M22,10l3,2.5c-.78.76-2.19,2.06-1,4.5s1.69,5-.5,7.33c-1.44,1.53-4.57,1.6-6,1.67-1.16.06-3.76.16-4.5,1-.74-.84-3.34-.94-4.5-1-1.43-.07-4.56-.14-6-1.67C.31,22,.81,19.45,2,17s-.23-3.74-1-4.5L4,10a6.94,6.94,0,0,0,4.5,1.5A7,7,0,0,0,13,10a7,7,0,0,0,4.5,1.5A6.84,6.84,0,0,0,22,10m0-1a1,1,0,0,0-.72.3,6,6,0,0,1-3.77,1.2,6.05,6.05,0,0,1-3.79-1.21A1,1,0,0,0,13,9h0a1,1,0,0,0-.7.3A6.15,6.15,0,0,1,8.5,10.5,6,6,0,0,1,4.71,9.3,1,1,0,0,0,4,9a1,1,0,0,0-.64.23l-3,2.5a1,1,0,0,0-.36.73,1,1,0,0,0,.3.76l0,0c.75.73,1.61,1.56.76,3.3C0,18.75-1,22,1.77,25c1.64,1.74,4.75,1.89,6.43,2h.37c2.82.15,3.51.48,3.68.66A1,1,0,0,0,13,28h0a1.05,1.05,0,0,0,.75-.34c.17-.18.86-.51,3.68-.66h.37c1.68-.08,4.8-.23,6.43-2,2.83-3,1.74-6.27.67-8.46-.85-1.74,0-2.57.76-3.3l0,0a1,1,0,0,0,.3-.76,1,1,0,0,0-.36-.73l-3-2.5A1,1,0,0,0,22,9Z"/>
  </g>
  <path fill="none" d="M0,9H26V29H0z"/>
  <path fill="none" d="M0,0H26V38H0z"/>
  <path fill="#fff" d="M3.92,0H22.08A.87.87,0,0,1,23,.86V7.14a.88.88,0,0,1-.92.86H3.92A.88.88,0,0,1,3,7.14V.86A.88.88,0,0,1,3.92,0Z"/>
  <g>
    <path fill="#5b638b" d="M9.25,7,8.9,5.94H6.77L6.41,7H5.19L7.37,1h.91l2.19,6ZM7.86,2.77,7.1,5H8.59Z"/>
    <path fill="#5b638b" d="M11.21,7V1h1.16V6h2.72V7Z"/>
    <path fill="#5b638b" d="M17.65,2.05V7H16.48V2.05H14.92V1h4.29v1Z"/>
    <path fill="#5b638b" d="M19,7V5.75h1.25V7Z"/>
  </g>
</svg>
