<svg xmlns="http://www.w3.org/2000/svg" width="20" height="20" viewBox="0 0 20 20">
  <title>
    us-highway-2
  </title>
  <path fill="none" d="M0,0H20V20H0z"/>
  <g>
    <path fill="#fff" d="M10,18.5a.52.52,0,0,1-.38-.17A3.62,3.62,0,0,0,7,17.5a6.39,6.39,0,0,1-4.84-1.82C-.48,12.89.55,9.84,1.56,7.78S1.48,4.66.69,3.89a.54.54,0,0,1-.17-.4.49.49,0,0,1,.16-.38l3-2.49A.49.49,0,0,1,4,.5h.06a.5.5,0,0,1,.34.2A3.41,3.41,0,0,0,7,2,3.63,3.63,0,0,0,9.62.67a.51.51,0,0,1,.76,0A3.53,3.53,0,0,0,13,2,3.53,3.53,0,0,0,15.62.68.48.48,0,0,1,16,.5a.49.49,0,0,1,.32.12l3,2.49a.51.51,0,0,1,.18.37.51.51,0,0,1-.15.37c-.83.8-1.91,1.86-.9,3.93s2,5.11-.59,7.9a6.32,6.32,0,0,1-4.78,1.82,3.67,3.67,0,0,0-2.7.83A.52.52,0,0,1,10,18.5Z"/>
    <path fill="#5b638b" d="M16,1l3,2.49c-.78.76-2.19,2.08-1,4.51s1.69,5-.5,7.33A5.83,5.83,0,0,1,13,17a4,4,0,0,0-3,1,4,4,0,0,0-3-1,5.83,5.83,0,0,1-4.5-1.67C.31,13,.81,10.45,2,8S1.78,4.25,1,3.49L4,1A3.89,3.89,0,0,0,7,2.5,4.11,4.11,0,0,0,10,1a4,4,0,0,0,3,1.5A4,4,0,0,0,16,1m0-1a1,1,0,0,0-.77.36A3,3,0,0,1,13,1.5,3,3,0,0,1,10.76.35a1,1,0,0,0-1.52,0A3.17,3.17,0,0,1,7,1.5,2.89,2.89,0,0,1,4.79.4,1,1,0,0,0,4.11,0H4a1,1,0,0,0-.64.23l-3,2.5A1,1,0,0,0,0,3.46a1,1,0,0,0,.3.75l0,0C1.1,5,2,5.82,1.11,7.56c-.62,1.26-2.49,5.1.66,8.46A6.84,6.84,0,0,0,6.9,18H7a3.17,3.17,0,0,1,2.3.66,1,1,0,0,0,1.5,0,3.17,3.17,0,0,1,2.3-.66h0a6.84,6.84,0,0,0,5.13-2c3.16-3.36,1.28-7.2.67-8.46-.85-1.75,0-2.58.76-3.32A1,1,0,0,0,20,3.47a1,1,0,0,0-.34-.74l-3-2.5A1,1,0,0,0,16,0Z"/>
  </g>
</svg>
